# 3ds Max Wavefront OBJ Exporter v0.97b - (c)2007 guruware
# File Created: 14.09.2016 12:05:06

mtllib Lemon.mtl

#
# object Lemon
#

v  0.0000 0.0000 -0.0000
v  2.8200 0.0000 -1.0264
v  3.0010 0.0000 -0.0000
v  2.2989 0.0000 -1.9290
v  1.5005 0.0000 -2.5989
v  0.5211 0.0000 -2.9554
v  -0.5211 0.0000 -2.9554
v  -1.5005 0.0000 -2.5989
v  -2.2989 0.0000 -1.9290
v  -2.8200 0.0000 -1.0264
v  -3.0010 0.0000 -0.0000
v  -2.8200 0.0000 1.0264
v  -2.2989 0.0000 1.9290
v  -1.5005 0.0000 2.5989
v  -0.5211 0.0000 2.9554
v  0.5211 0.0000 2.9554
v  1.5005 0.0000 2.5989
v  2.2989 0.0000 1.9290
v  2.8200 0.0000 1.0264
v  5.5907 0.0000 -2.0348
v  5.9495 0.0000 -0.0000
v  4.5576 0.0000 -3.8242
v  2.9747 0.0000 -5.1524
v  1.0331 0.0000 -5.8591
v  -1.0331 0.0000 -5.8591
v  -2.9747 0.0000 -5.1524
v  -4.5576 0.0000 -3.8242
v  -5.5907 0.0000 -2.0348
v  -5.9495 0.0000 -0.0000
v  -5.5907 0.0000 2.0348
v  -4.5576 0.0000 3.8242
v  -2.9747 0.0000 5.1524
v  -1.0331 0.0000 5.8591
v  1.0331 0.0000 5.8591
v  2.9747 0.0000 5.1524
v  4.5576 0.0000 3.8242
v  5.5907 0.0000 2.0348
v  5.6400 0.0525 -2.0528
v  5.6400 0.5376 -2.0528
v  6.0019 0.5376 -0.0000
v  6.0019 0.0525 -0.0000
v  4.5978 0.0525 -3.8580
v  4.5978 0.5376 -3.8580
v  3.0010 0.0525 -5.1978
v  3.0010 0.5376 -5.1978
v  1.0422 0.0525 -5.9108
v  1.0422 0.5376 -5.9108
v  -1.0422 0.0525 -5.9108
v  -1.0422 0.5376 -5.9108
v  -3.0010 0.0525 -5.1978
v  -3.0010 0.5376 -5.1978
v  -4.5978 0.0525 -3.8580
v  -4.5978 0.5376 -3.8580
v  -5.6400 0.0525 -2.0528
v  -5.6400 0.5376 -2.0528
v  -6.0019 0.0525 -0.0000
v  -6.0019 0.5376 -0.0000
v  -5.6400 0.0525 2.0528
v  -5.6400 0.5376 2.0528
v  -4.5978 0.0525 3.8580
v  -4.5978 0.5376 3.8580
v  -3.0010 0.0525 5.1978
v  -3.0010 0.5376 5.1978
v  -1.0422 0.0525 5.9108
v  -1.0422 0.5376 5.9108
v  1.0422 0.0525 5.9108
v  1.0422 0.5376 5.9108
v  3.0010 0.0525 5.1978
v  3.0010 0.5376 5.1978
v  4.5978 0.0525 3.8580
v  4.5978 0.5376 3.8580
v  5.6400 0.0525 2.0528
v  5.6400 0.5376 2.0528
v  5.5907 0.5901 -2.0348
v  2.8200 0.5901 -1.0264
v  3.0010 0.5901 -0.0000
v  5.9495 0.5901 -0.0000
v  4.5576 0.5901 -3.8242
v  2.2989 0.5901 -1.9290
v  2.9747 0.5901 -5.1524
v  1.5005 0.5901 -2.5989
v  1.0331 0.5901 -5.8591
v  0.5211 0.5901 -2.9554
v  -1.0331 0.5901 -5.8591
v  -0.5211 0.5901 -2.9554
v  -2.9747 0.5901 -5.1524
v  -1.5005 0.5901 -2.5989
v  -4.5576 0.5901 -3.8242
v  -2.2989 0.5901 -1.9290
v  -5.5907 0.5901 -2.0348
v  -2.8200 0.5901 -1.0264
v  -5.9495 0.5901 -0.0000
v  -3.0010 0.5901 -0.0000
v  -5.5907 0.5901 2.0348
v  -2.8200 0.5901 1.0264
v  -4.5576 0.5901 3.8242
v  -2.2989 0.5901 1.9290
v  -2.9747 0.5901 5.1524
v  -1.5005 0.5901 2.5989
v  -1.0331 0.5901 5.8591
v  -0.5211 0.5901 2.9554
v  1.0331 0.5901 5.8591
v  0.5211 0.5901 2.9554
v  2.9747 0.5901 5.1524
v  1.5005 0.5901 2.5989
v  4.5576 0.5901 3.8242
v  2.2989 0.5901 1.9290
v  5.5907 0.5901 2.0348
v  2.8200 0.5901 1.0264
v  0.0000 0.5901 -0.0000
v  5.6255 0.0154 -2.0475
v  5.9866 0.0154 -0.0000
v  4.5860 0.0154 -3.8481
v  2.9933 0.0154 -5.1845
v  1.0396 0.0154 -5.8956
v  -1.0396 0.0154 -5.8956
v  -2.9933 0.0154 -5.1845
v  -4.5860 0.0154 -3.8481
v  -5.6255 0.0154 -2.0475
v  -5.9866 0.0154 -0.0000
v  -5.6255 0.0154 2.0475
v  -4.5860 0.0154 3.8481
v  -2.9933 0.0154 5.1845
v  -1.0396 0.0154 5.8956
v  1.0396 0.0154 5.8956
v  2.9933 0.0154 5.1845
v  4.5860 0.0154 3.8481
v  5.6255 0.0154 2.0475
v  5.6255 0.5747 -2.0475
v  5.9866 0.5747 -0.0000
v  4.5860 0.5747 -3.8481
v  2.9933 0.5747 -5.1845
v  1.0396 0.5747 -5.8956
v  -1.0396 0.5747 -5.8956
v  -2.9933 0.5747 -5.1845
v  -4.5860 0.5747 -3.8481
v  -5.6255 0.5747 -2.0475
v  -5.9866 0.5747 -0.0000
v  -5.6255 0.5747 2.0475
v  -4.5860 0.5747 3.8481
v  -2.9933 0.5747 5.1845
v  -1.0396 0.5747 5.8956
v  1.0396 0.5747 5.8956
v  2.9933 0.5747 5.1845
v  4.5860 0.5747 3.8481
v  5.6255 0.5747 2.0475
# 146 vertices

vn 0.0000 -1.0000 -0.0000
vn 0.2027 -0.9764 -0.0738
vn 0.2158 -0.9764 0.0000
vn 0.1653 -0.9764 -0.1387
vn 0.1079 -0.9764 -0.1869
vn 0.0375 -0.9764 -0.2125
vn -0.0375 -0.9764 -0.2125
vn -0.1079 -0.9764 -0.1869
vn -0.1653 -0.9764 -0.1387
vn -0.2027 -0.9764 -0.0738
vn -0.2158 -0.9764 0.0000
vn -0.2027 -0.9764 0.0738
vn -0.1653 -0.9764 0.1387
vn -0.1079 -0.9764 0.1869
vn -0.0375 -0.9764 0.2125
vn 0.0375 -0.9764 0.2125
vn 0.1079 -0.9764 0.1869
vn 0.1653 -0.9764 0.1387
vn 0.2027 -0.9764 0.0738
vn 0.9224 -0.1911 -0.3357
vn 0.9224 0.1911 -0.3357
vn 0.9816 0.1911 0.0000
vn 0.9816 -0.1911 0.0000
vn 0.7519 -0.1911 -0.6309
vn 0.7519 0.1911 -0.6309
vn 0.4908 -0.1911 -0.8501
vn 0.4908 0.1911 -0.8501
vn 0.1704 -0.1911 -0.9667
vn 0.1704 0.1911 -0.9667
vn -0.1704 -0.1911 -0.9667
vn -0.1704 0.1911 -0.9667
vn -0.4908 -0.1911 -0.8501
vn -0.4908 0.1911 -0.8501
vn -0.7519 -0.1911 -0.6309
vn -0.7519 0.1911 -0.6309
vn -0.9224 -0.1911 -0.3357
vn -0.9224 0.1911 -0.3357
vn -0.9816 -0.1911 -0.0000
vn -0.9816 0.1911 -0.0000
vn -0.9224 -0.1911 0.3357
vn -0.9224 0.1911 0.3357
vn -0.7519 -0.1911 0.6309
vn -0.7519 0.1911 0.6309
vn -0.4908 -0.1911 0.8501
vn -0.4908 0.1911 0.8501
vn -0.1704 -0.1911 0.9667
vn -0.1704 0.1911 0.9667
vn 0.1704 -0.1911 0.9667
vn 0.1704 0.1911 0.9667
vn 0.4908 -0.1911 0.8501
vn 0.4908 0.1911 0.8501
vn 0.7519 -0.1911 0.6309
vn 0.7519 0.1911 0.6309
vn 0.9224 -0.1911 0.3357
vn 0.9224 0.1911 0.3357
vn 0.2027 0.9764 -0.0738
vn 0.0000 1.0000 -0.0000
vn 0.2158 0.9764 0.0000
vn 0.1653 0.9764 -0.1387
vn 0.1079 0.9764 -0.1869
vn 0.0375 0.9764 -0.2125
vn -0.0375 0.9764 -0.2125
vn -0.1079 0.9764 -0.1869
vn -0.1653 0.9764 -0.1387
vn -0.2027 0.9764 -0.0738
vn -0.2158 0.9764 -0.0000
vn -0.2027 0.9764 0.0738
vn -0.1653 0.9764 0.1387
vn -0.1079 0.9764 0.1869
vn -0.0375 0.9764 0.2125
vn 0.0375 0.9764 0.2125
vn 0.1079 0.9764 0.1869
vn 0.1653 0.9764 0.1387
vn 0.2027 0.9764 0.0738
vn 0.3596 -0.9239 -0.1309
vn 0.3827 -0.9239 0.0000
vn 0.2932 -0.9239 -0.2460
vn 0.1913 -0.9239 -0.3314
vn 0.0665 -0.9239 -0.3769
vn -0.0665 -0.9239 -0.3769
vn -0.1913 -0.9239 -0.3314
vn -0.2932 -0.9239 -0.2460
vn -0.3596 -0.9239 -0.1309
vn -0.3827 -0.9239 0.0000
vn -0.3596 -0.9239 0.1309
vn -0.2932 -0.9239 0.2460
vn -0.1913 -0.9239 0.3314
vn -0.0665 -0.9239 0.3769
vn 0.0665 -0.9239 0.3769
vn 0.1913 -0.9239 0.3314
vn 0.2932 -0.9239 0.2460
vn 0.3596 -0.9239 0.1309
vn 0.9239 -0.3827 0.0000
vn 0.8682 -0.3827 -0.3160
vn 0.8682 0.3827 -0.3160
vn 0.9239 0.3827 0.0000
vn 0.7077 -0.3827 -0.5939
vn 0.7077 0.3827 -0.5939
vn 0.4619 -0.3827 -0.8001
vn 0.4619 0.3827 -0.8001
vn 0.1604 -0.3827 -0.9098
vn 0.1604 0.3827 -0.9098
vn -0.1604 -0.3827 -0.9098
vn -0.1604 0.3827 -0.9098
vn -0.4619 -0.3827 -0.8001
vn -0.4619 0.3827 -0.8001
vn -0.7077 -0.3827 -0.5939
vn -0.7077 0.3827 -0.5939
vn -0.8682 -0.3827 -0.3160
vn -0.8682 0.3827 -0.3160
vn -0.9239 -0.3827 0.0000
vn -0.9239 0.3827 0.0000
vn -0.8682 -0.3827 0.3160
vn -0.8682 0.3827 0.3160
vn -0.7077 -0.3827 0.5939
vn -0.7077 0.3827 0.5939
vn -0.4619 -0.3827 0.8001
vn -0.4619 0.3827 0.8001
vn -0.1604 -0.3827 0.9098
vn -0.1604 0.3827 0.9098
vn 0.1604 -0.3827 0.9098
vn 0.1604 0.3827 0.9098
vn 0.4619 -0.3827 0.8001
vn 0.4619 0.3827 0.8001
vn 0.7077 -0.3827 0.5939
vn 0.7077 0.3827 0.5939
vn 0.8682 -0.3827 0.3160
vn 0.8682 0.3827 0.3160
vn 0.3827 0.9239 0.0000
vn 0.3596 0.9239 -0.1309
vn 0.2932 0.9239 -0.2460
vn 0.1913 0.9239 -0.3314
vn 0.0665 0.9239 -0.3769
vn -0.0665 0.9239 -0.3769
vn -0.1913 0.9239 -0.3314
vn -0.2932 0.9239 -0.2460
vn -0.3596 0.9239 -0.1309
vn -0.3827 0.9239 -0.0000
vn -0.3596 0.9239 0.1309
vn -0.2932 0.9239 0.2460
vn -0.1913 0.9239 0.3314
vn -0.0665 0.9239 0.3769
vn 0.0665 0.9239 0.3769
vn 0.1913 0.9239 0.3314
vn 0.2932 0.9239 0.2460
vn 0.3596 0.9239 0.1309
# 146 vertex normals

vt 0.4929 0.5188 0.0000
vt 0.7142 0.6005 0.0000
vt 0.7284 0.5188 0.0000
vt 0.6733 0.6725 0.0000
vt 0.6106 0.7258 0.0000
vt 0.5338 0.7542 0.0000
vt 0.4520 0.7542 0.0000
vt 0.3751 0.7258 0.0000
vt 0.3125 0.6725 0.0000
vt 0.2716 0.6005 0.0000
vt 0.2574 0.5188 0.0000
vt 0.2716 0.4370 0.0000
vt 0.3125 0.3651 0.0000
vt 0.3751 0.3117 0.0000
vt 0.4520 0.2833 0.0000
vt 0.5338 0.2833 0.0000
vt 0.6106 0.3117 0.0000
vt 0.6733 0.3651 0.0000
vt 0.7142 0.4370 0.0000
vt 0.9316 0.6809 0.0000
vt 0.9597 0.5188 0.0000
vt 0.8505 0.8235 0.0000
vt 0.7263 0.9293 0.0000
vt 0.5739 0.9856 0.0000
vt 0.4118 0.9856 0.0000
vt 0.2595 0.9293 0.0000
vt 0.1353 0.8235 0.0000
vt 0.0542 0.6809 0.0000
vt 0.0260 0.5188 0.0000
vt 0.0542 0.3566 0.0000
vt 0.1353 0.2141 0.0000
vt 0.2595 0.1082 0.0000
vt 0.4118 0.0519 0.0000
vt 0.5739 0.0519 0.0000
vt 0.7263 0.1082 0.0000
vt 0.8505 0.2141 0.0000
vt 0.9316 0.3566 0.0000
vt 0.0631 0.0139 0.5009
vt 0.0631 0.0396 0.5009
vt 0.0101 0.0396 0.5000
vt 0.0101 0.0139 0.5000
vt 0.1159 0.0139 0.5032
vt 0.1159 0.0396 0.5032
vt 0.1680 0.0139 0.5058
vt 0.1680 0.0396 0.5058
vt 0.2198 0.0139 0.5075
vt 0.2198 0.0396 0.5075
vt 0.2713 0.0139 0.5075
vt 0.2713 0.0396 0.5075
vt 0.3230 0.0139 0.5058
vt 0.3230 0.0396 0.5058
vt 0.3752 0.0139 0.5032
vt 0.3752 0.0396 0.5032
vt 0.4279 0.0139 0.5009
vt 0.4279 0.0396 0.5009
vt 0.4810 0.0139 0.5000
vt 0.4810 0.0396 0.5000
vt 0.5341 0.0139 0.5009
vt 0.5341 0.0396 0.5009
vt 0.5868 0.0139 0.5032
vt 0.5868 0.0396 0.5032
vt 0.6390 0.0139 0.5058
vt 0.6390 0.0396 0.5058
vt 0.6907 0.0139 0.5075
vt 0.6907 0.0396 0.5075
vt 0.7423 0.0139 0.5075
vt 0.7423 0.0396 0.5075
vt 0.7940 0.0139 0.5058
vt 0.7940 0.0396 0.5058
vt 0.8462 0.0139 0.5032
vt 0.8462 0.0396 0.5032
vt 0.8989 0.0139 0.5009
vt 0.8989 0.0396 0.5009
vt 0.9520 0.0139 0.5000
vt 0.9520 0.0396 0.5000
vt 0.9354 0.6823 0.0000
vt 0.9638 0.5188 0.0000
vt 0.8536 0.8261 0.0000
vt 0.7284 0.9329 0.0000
vt 0.5747 0.9897 0.0000
vt 0.4111 0.9897 0.0000
vt 0.2574 0.9329 0.0000
vt 0.1321 0.8261 0.0000
vt 0.0503 0.6823 0.0000
vt 0.0219 0.5188 0.0000
vt 0.0503 0.3552 0.0000
vt 0.1321 0.2114 0.0000
vt 0.2574 0.1046 0.0000
vt 0.4111 0.0478 0.0000
vt 0.5747 0.0478 0.0000
vt 0.7284 0.1046 0.0000
vt 0.8536 0.2114 0.0000
vt 0.9354 0.3552 0.0000
vt 0.0101 0.0111 0.5000
vt 0.0631 0.0111 0.5009
vt 0.0631 0.0424 0.5009
vt 0.0101 0.0424 0.5000
vt 0.1159 0.0111 0.5032
vt 0.1159 0.0424 0.5032
vt 0.1680 0.0111 0.5058
vt 0.1680 0.0424 0.5058
vt 0.2198 0.0111 0.5075
vt 0.2198 0.0424 0.5075
vt 0.2713 0.0111 0.5075
vt 0.2713 0.0424 0.5075
vt 0.3230 0.0111 0.5058
vt 0.3230 0.0424 0.5058
vt 0.3752 0.0111 0.5032
vt 0.3752 0.0424 0.5032
vt 0.4279 0.0111 0.5009
vt 0.4279 0.0424 0.5009
vt 0.4810 0.0111 0.5000
vt 0.4810 0.0424 0.5000
vt 0.5341 0.0111 0.5009
vt 0.5341 0.0424 0.5009
vt 0.5868 0.0111 0.5032
vt 0.5868 0.0424 0.5032
vt 0.6390 0.0111 0.5058
vt 0.6390 0.0424 0.5058
vt 0.6907 0.0111 0.5075
vt 0.6907 0.0424 0.5075
vt 0.7423 0.0111 0.5075
vt 0.7423 0.0424 0.5075
vt 0.7940 0.0111 0.5058
vt 0.7940 0.0424 0.5058
vt 0.8462 0.0111 0.5032
vt 0.8462 0.0424 0.5032
vt 0.8989 0.0111 0.5009
vt 0.8989 0.0424 0.5009
vt 0.9520 0.0111 0.5000
vt 0.9520 0.0424 0.5000
# 131 texture coords

g Lemon
usemtl lemon
s 1
f 1/1/1 2/2/1 3/3/1 
f 1/1/1 4/4/1 2/2/1 
f 1/1/1 5/5/1 4/4/1 
f 1/1/1 6/6/1 5/5/1 
f 1/1/1 7/7/1 6/6/1 
f 1/1/1 8/8/1 7/7/1 
f 1/1/1 9/9/1 8/8/1 
f 1/1/1 10/10/1 9/9/1 
f 1/1/1 11/11/1 10/10/1 
f 1/1/1 12/12/1 11/11/1 
f 1/1/1 13/13/1 12/12/1 
f 1/1/1 14/14/1 13/13/1 
f 1/1/1 15/15/1 14/14/1 
f 1/1/1 16/16/1 15/15/1 
f 1/1/1 17/17/1 16/16/1 
f 1/1/1 18/18/1 17/17/1 
f 1/1/1 19/19/1 18/18/1 
f 1/1/1 3/3/1 19/19/1 
f 2/2/1 20/20/2 21/21/3 3/3/1 
f 4/4/1 22/22/4 20/20/2 2/2/1 
f 5/5/1 23/23/5 22/22/4 4/4/1 
f 6/6/1 24/24/6 23/23/5 5/5/1 
f 7/7/1 25/25/7 24/24/6 6/6/1 
f 8/8/1 26/26/8 25/25/7 7/7/1 
f 9/9/1 27/27/9 26/26/8 8/8/1 
f 10/10/1 28/28/10 27/27/9 9/9/1 
f 11/11/1 29/29/11 28/28/10 10/10/1 
f 12/12/1 30/30/12 29/29/11 11/11/1 
f 13/13/1 31/31/13 30/30/12 12/12/1 
f 14/14/1 32/32/14 31/31/13 13/13/1 
f 15/15/1 33/33/15 32/32/14 14/14/1 
f 16/16/1 34/34/16 33/33/15 15/15/1 
f 17/17/1 35/35/17 34/34/16 16/16/1 
f 18/18/1 36/36/18 35/35/17 17/17/1 
f 19/19/1 37/37/19 36/36/18 18/18/1 
f 3/3/1 21/21/3 37/37/19 19/19/1 
s 2
f 38/38/20 39/39/21 40/40/22 41/41/23 
f 42/42/24 43/43/25 39/39/21 38/38/20 
f 44/44/26 45/45/27 43/43/25 42/42/24 
f 46/46/28 47/47/29 45/45/27 44/44/26 
f 48/48/30 49/49/31 47/47/29 46/46/28 
f 50/50/32 51/51/33 49/49/31 48/48/30 
f 52/52/34 53/53/35 51/51/33 50/50/32 
f 54/54/36 55/55/37 53/53/35 52/52/34 
f 56/56/38 57/57/39 55/55/37 54/54/36 
f 58/58/40 59/59/41 57/57/39 56/56/38 
f 60/60/42 61/61/43 59/59/41 58/58/40 
f 62/62/44 63/63/45 61/61/43 60/60/42 
f 64/64/46 65/65/47 63/63/45 62/62/44 
f 66/66/48 67/67/49 65/65/47 64/64/46 
f 68/68/50 69/69/51 67/67/49 66/66/48 
f 70/70/52 71/71/53 69/69/51 68/68/50 
f 72/72/54 73/73/55 71/71/53 70/70/52 
f 41/74/23 40/75/22 73/73/55 72/72/54 
s 1
f 74/20/56 75/2/57 76/3/57 77/21/58 
f 78/22/59 79/4/57 75/2/57 74/20/56 
f 80/23/60 81/5/57 79/4/57 78/22/59 
f 82/24/61 83/6/57 81/5/57 80/23/60 
f 84/25/62 85/7/57 83/6/57 82/24/61 
f 86/26/63 87/8/57 85/7/57 84/25/62 
f 88/27/64 89/9/57 87/8/57 86/26/63 
f 90/28/65 91/10/57 89/9/57 88/27/64 
f 92/29/66 93/11/57 91/10/57 90/28/65 
f 94/30/67 95/12/57 93/11/57 92/29/66 
f 96/31/68 97/13/57 95/12/57 94/30/67 
f 98/32/69 99/14/57 97/13/57 96/31/68 
f 100/33/70 101/15/57 99/14/57 98/32/69 
f 102/34/71 103/16/57 101/15/57 100/33/70 
f 104/35/72 105/17/57 103/16/57 102/34/71 
f 106/36/73 107/18/57 105/17/57 104/35/72 
f 108/37/74 109/19/57 107/18/57 106/36/73 
f 77/21/58 76/3/57 109/19/57 108/37/74 
f 110/1/57 76/3/57 75/2/57 
f 110/1/57 75/2/57 79/4/57 
f 110/1/57 79/4/57 81/5/57 
f 110/1/57 81/5/57 83/6/57 
f 110/1/57 83/6/57 85/7/57 
f 110/1/57 85/7/57 87/8/57 
f 110/1/57 87/8/57 89/9/57 
f 110/1/57 89/9/57 91/10/57 
f 110/1/57 91/10/57 93/11/57 
f 110/1/57 93/11/57 95/12/57 
f 110/1/57 95/12/57 97/13/57 
f 110/1/57 97/13/57 99/14/57 
f 110/1/57 99/14/57 101/15/57 
f 110/1/57 101/15/57 103/16/57 
f 110/1/57 103/16/57 105/17/57 
f 110/1/57 105/17/57 107/18/57 
f 110/1/57 107/18/57 109/19/57 
f 110/1/57 109/19/57 76/3/57 
f 21/21/3 20/20/2 111/76/75 112/77/76 
f 20/20/2 22/22/4 113/78/77 111/76/75 
f 22/22/4 23/23/5 114/79/78 113/78/77 
f 23/23/5 24/24/6 115/80/79 114/79/78 
f 24/24/6 25/25/7 116/81/80 115/80/79 
f 25/25/7 26/26/8 117/82/81 116/81/80 
f 26/26/8 27/27/9 118/83/82 117/82/81 
f 27/27/9 28/28/10 119/84/83 118/83/82 
f 28/28/10 29/29/11 120/85/84 119/84/83 
f 29/29/11 30/30/12 121/86/85 120/85/84 
f 30/30/12 31/31/13 122/87/86 121/86/85 
f 31/31/13 32/32/14 123/88/87 122/87/86 
f 32/32/14 33/33/15 124/89/88 123/88/87 
f 33/33/15 34/34/16 125/90/89 124/89/88 
f 34/34/16 35/35/17 126/91/90 125/90/89 
f 35/35/17 36/36/18 127/92/91 126/91/90 
f 36/36/18 37/37/19 128/93/92 127/92/91 
f 37/37/19 21/21/3 112/77/76 128/93/92 
s 2
f 38/38/20 41/41/23 112/94/93 111/95/94 
f 40/40/22 39/39/21 129/96/95 130/97/96 
f 42/42/24 38/38/20 111/95/94 113/98/97 
f 39/39/21 43/43/25 131/99/98 129/96/95 
f 44/44/26 42/42/24 113/98/97 114/100/99 
f 43/43/25 45/45/27 132/101/100 131/99/98 
f 46/46/28 44/44/26 114/100/99 115/102/101 
f 45/45/27 47/47/29 133/103/102 132/101/100 
f 48/48/30 46/46/28 115/102/101 116/104/103 
f 47/47/29 49/49/31 134/105/104 133/103/102 
f 50/50/32 48/48/30 116/104/103 117/106/105 
f 49/49/31 51/51/33 135/107/106 134/105/104 
f 52/52/34 50/50/32 117/106/105 118/108/107 
f 51/51/33 53/53/35 136/109/108 135/107/106 
f 54/54/36 52/52/34 118/108/107 119/110/109 
f 53/53/35 55/55/37 137/111/110 136/109/108 
f 56/56/38 54/54/36 119/110/109 120/112/111 
f 55/55/37 57/57/39 138/113/112 137/111/110 
f 58/58/40 56/56/38 120/112/111 121/114/113 
f 57/57/39 59/59/41 139/115/114 138/113/112 
f 60/60/42 58/58/40 121/114/113 122/116/115 
f 59/59/41 61/61/43 140/117/116 139/115/114 
f 62/62/44 60/60/42 122/116/115 123/118/117 
f 61/61/43 63/63/45 141/119/118 140/117/116 
f 64/64/46 62/62/44 123/118/117 124/120/119 
f 63/63/45 65/65/47 142/121/120 141/119/118 
f 66/66/48 64/64/46 124/120/119 125/122/121 
f 65/65/47 67/67/49 143/123/122 142/121/120 
f 68/68/50 66/66/48 125/122/121 126/124/123 
f 67/67/49 69/69/51 144/125/124 143/123/122 
f 70/70/52 68/68/50 126/124/123 127/126/125 
f 69/69/51 71/71/53 145/127/126 144/125/124 
f 72/72/54 70/70/52 127/126/125 128/128/127 
f 71/71/53 73/73/55 146/129/128 145/127/126 
f 41/74/23 72/72/54 128/128/127 112/130/93 
f 73/73/55 40/75/22 130/131/96 146/129/128 
s 1
f 74/20/56 77/21/58 130/77/129 129/76/130 
f 78/22/59 74/20/56 129/76/130 131/78/131 
f 80/23/60 78/22/59 131/78/131 132/79/132 
f 82/24/61 80/23/60 132/79/132 133/80/133 
f 84/25/62 82/24/61 133/80/133 134/81/134 
f 86/26/63 84/25/62 134/81/134 135/82/135 
f 88/27/64 86/26/63 135/82/135 136/83/136 
f 90/28/65 88/27/64 136/83/136 137/84/137 
f 92/29/66 90/28/65 137/84/137 138/85/138 
f 94/30/67 92/29/66 138/85/138 139/86/139 
f 96/31/68 94/30/67 139/86/139 140/87/140 
f 98/32/69 96/31/68 140/87/140 141/88/141 
f 100/33/70 98/32/69 141/88/141 142/89/142 
f 102/34/71 100/33/70 142/89/142 143/90/143 
f 104/35/72 102/34/71 143/90/143 144/91/144 
f 106/36/73 104/35/72 144/91/144 145/92/145 
f 108/37/74 106/36/73 145/92/145 146/93/146 
f 77/21/58 108/37/74 146/93/146 130/77/129 
# 126 polygons - 36 triangles

