# 3ds Max Wavefront OBJ Exporter v0.97b - (c)2007 guruware
# File Created: 14.09.2016 11:48:09

mtllib BakingSpoon01.mtl

#
# object BakingSpoon01
#

v  -27.2840 -1.2898 4.5690
v  -33.1058 1.6000 4.6206
v  -30.5059 1.5791 8.8321
v  -26.4702 1.5108 9.2882
v  -23.4600 -1.2902 4.1999
v  -23.0220 1.5225 8.5007
v  -19.9070 1.6052 6.3702
v  -18.4559 1.6317 3.0568
v  -27.5291 -2.2545 0.0049
v  -34.4339 1.6189 0.0116
v  -23.6138 -2.2611 -0.0008
v  -18.4162 0.8634 -0.0111
v  -15.4904 2.1893 -0.0149
v  -15.4865 2.1965 1.7735
v  -27.2778 -1.2887 -4.5746
v  -33.1170 1.6116 -4.6479
v  -23.4602 -1.2901 -4.2003
v  -18.4483 1.6326 -3.0415
v  -15.5283 2.1872 -1.7442
v  -26.4691 1.5091 -9.2852
v  -30.5059 1.5791 -8.8320
v  -23.0238 1.5210 -8.4990
v  -19.9070 1.6052 -6.3702
v  -11.6758 2.4686 1.6251
v  -11.6213 3.0531 0.0000
v  -11.6758 2.4686 -1.6250
v  26.0580 -0.2117 1.4662
v  26.6819 0.1715 -0.0000
v  26.0580 -0.2117 -1.4662
v  27.6986 -0.2862 0.5670
v  27.5975 -0.2648 0.0000
v  27.6986 -0.2862 -0.5670
v  29.0629 -0.3305 0.5704
v  28.1682 -0.3083 0.9152
v  27.9217 -0.3076 1.4731
v  29.8106 -0.3810 1.4803
v  27.9217 -0.3076 -1.4731
v  28.1682 -0.3083 -0.9152
v  29.0629 -0.3305 -0.5704
v  29.8106 -0.3810 -1.4803
v  29.5750 -0.3489 -0.0000
v  30.5043 -0.3788 0.0000
v  -30.5781 0.3578 9.2063
v  -33.3409 0.3637 4.8248
v  -27.3448 -2.5214 4.8904
v  -26.3921 0.3502 9.7807
v  -23.3496 -2.5295 4.4561
v  -22.9392 0.3529 8.9122
v  -18.2542 0.3680 3.1372
v  -19.7354 0.3625 6.5250
v  -34.7191 0.3676 0.0000
v  -27.6623 -3.5327 0.0000
v  -23.4863 -3.5446 0.0000
v  -18.2145 -0.4137 0.0000
v  -15.4074 0.8491 0.0000
v  -15.4416 0.8491 1.7716
v  -33.3409 0.3637 -4.8248
v  -27.3448 -2.5214 -4.8904
v  -23.3496 -2.5295 -4.4561
v  -18.2542 0.3680 -3.1372
v  -15.4416 0.8491 -1.7716
v  -30.5781 0.3578 -9.2063
v  -26.3921 0.3502 -9.7807
v  -22.9392 0.3529 -8.9121
v  -19.7354 0.3625 -6.5249
v  -11.6774 1.0811 1.6251
v  -11.6229 -0.1104 0.0000
v  -11.6774 1.0811 -1.6251
v  26.0376 -1.1731 1.4577
v  26.6609 -1.9343 -0.0000
v  26.0376 -1.1731 -1.4577
v  27.6787 -1.1441 0.5580
v  27.5775 -1.1295 -0.0000
v  27.6787 -1.1441 -0.5580
v  27.9034 -1.1505 1.4649
v  28.1537 -1.1345 0.9085
v  29.0392 -1.0945 0.5593
v  29.7881 -1.0907 1.4687
v  29.0392 -1.0945 -0.5593
v  28.1537 -1.1345 -0.9085
v  27.9034 -1.1505 -1.4649
v  29.7881 -1.0907 -1.4687
v  29.5515 -1.0761 -0.0000
v  30.4840 -1.0361 -0.0000
v  -30.5608 1.0384 9.1554
v  -26.4110 1.0030 9.6716
v  -33.3111 1.0432 4.7976
v  -22.9567 1.0087 8.8235
v  -19.7594 1.0511 6.5132
v  -18.2868 1.0428 3.1678
v  -34.6884 1.0550 0.0061
v  -15.4519 1.5336 1.8766
v  -33.3169 1.0470 -4.8116
v  -15.4729 1.5342 -1.8619
v  -18.2831 1.0464 -3.1596
v  -30.5608 1.0373 -9.1558
v  -26.4105 1.0025 -9.6699
v  -22.9576 1.0082 -8.8226
v  -19.7594 1.0510 -6.5132
v  -11.6834 1.7742 1.7227
v  -11.6836 1.7761 -1.7227
v  26.0473 -0.6934 1.5495
v  26.0473 -0.6934 -1.5495
v  27.9123 -0.7303 1.5570
v  29.8463 -0.7364 1.5491
v  29.8463 -0.7364 -1.5490
v  27.9123 -0.7303 -1.5570
v  30.5824 -0.7067 -0.0000
# 108 vertices

vn 0.1696 0.9263 -0.3365
vn -0.3309 0.9327 0.1436
vn -0.2750 0.8945 0.3526
vn 0.0260 0.9669 0.2538
vn -0.2627 0.9049 -0.3348
vn 0.1351 0.9567 0.2578
vn 0.3099 0.9102 0.2749
vn 0.0106 0.9615 0.2745
vn 0.2463 0.9692 0.0067
vn -0.4254 0.9049 0.0103
vn -0.2600 0.9656 0.0027
vn -0.4544 0.8907 -0.0100
vn -0.2624 0.9649 -0.0060
vn 0.0154 0.8112 0.5846
vn 0.1724 0.9261 0.3357
vn -0.3479 0.9237 -0.1604
vn -0.2607 0.9036 0.3399
vn 0.0259 0.9662 -0.2564
vn -0.0895 0.8202 -0.5651
vn 0.0090 0.9653 -0.2612
vn -0.2657 0.8950 -0.3583
vn 0.1369 0.9559 -0.2598
vn 0.3145 0.9116 -0.2647
vn -0.0231 0.6649 0.7466
vn -0.0421 0.9989 0.0202
vn 0.0132 0.6476 -0.7618
vn 0.0668 0.6726 0.7370
vn 0.2069 0.9784 -0.0000
vn 0.0680 0.6718 -0.7376
vn 0.1870 0.9786 0.0859
vn 0.4302 0.9027 -0.0000
vn 0.1870 0.9786 -0.0859
vn 0.0438 0.9989 0.0178
vn 0.0322 0.9994 0.0129
vn 0.0305 0.7665 0.6415
vn 0.4074 0.6696 0.6210
vn 0.0285 0.7660 -0.6422
vn 0.0322 0.9994 -0.0129
vn 0.0438 0.9989 -0.0178
vn 0.4104 0.6690 -0.6197
vn 0.0394 0.9992 0.0000
vn 0.7147 0.6994 -0.0029
vn -0.4898 -0.4277 0.7597
vn -0.8091 -0.4619 0.3634
vn -0.1652 -0.9276 0.3351
vn 0.0515 -0.3946 0.9174
vn 0.2625 -0.9057 0.3328
vn 0.3835 -0.3852 0.8393
vn 0.6688 -0.5734 0.4733
vn 0.7143 -0.4143 0.5640
vn -0.8884 -0.4590 -0.0071
vn -0.2452 -0.9695 -0.0073
vn 0.2581 -0.9661 -0.0026
vn 0.4500 -0.8930 0.0118
vn 0.1124 -0.9904 0.0800
vn 0.2397 -0.7733 0.5870
vn -0.8035 -0.4809 -0.3508
vn -0.1679 -0.9274 -0.3342
vn 0.2600 -0.9044 -0.3384
vn 0.6522 -0.5805 -0.4874
vn 0.2392 -0.7081 -0.6643
vn -0.4870 -0.4262 -0.7624
vn 0.0537 -0.4004 -0.9148
vn 0.3717 -0.3974 -0.8390
vn 0.7156 -0.4165 -0.5607
vn -0.0377 -0.5400 0.8408
vn -0.0907 -0.9953 0.0352
vn 0.0197 -0.5035 -0.8638
vn 0.0278 -0.6232 0.7815
vn 0.2507 -0.9681 0.0000
vn 0.0266 -0.6241 -0.7809
vn 0.2777 -0.9541 0.1122
vn 0.6598 -0.7514 0.0000
vn 0.2777 -0.9541 -0.1122
vn 0.0152 -0.7839 0.6207
vn 0.0368 -0.9992 -0.0121
vn 0.0276 -0.9995 -0.0169
vn 0.3881 -0.7039 0.5949
vn 0.0276 -0.9995 0.0169
vn 0.0368 -0.9992 0.0121
vn 0.0167 -0.7847 -0.6197
vn 0.3869 -0.7044 -0.5950
vn 0.0345 -0.9994 -0.0000
vn 0.7037 -0.7105 0.0018
vn -0.5036 0.2810 0.8170
vn 0.0604 0.3845 0.9211
vn -0.8839 0.2404 0.4012
vn 0.3918 0.3309 0.8585
vn 0.7570 0.1946 0.6238
vn 0.6991 0.1563 0.6978
vn -0.9743 0.2252 0.0014
vn 0.2255 0.0174 0.9741
vn -0.8883 0.2221 -0.4021
vn 0.2307 0.0451 -0.9720
vn 0.6934 0.1622 -0.7020
vn -0.4967 0.2802 -0.8215
vn 0.0500 0.3853 -0.9214
vn 0.3875 0.3302 -0.8607
vn 0.7627 0.1926 -0.6175
vn 0.0223 0.0060 0.9997
vn 0.0213 0.0063 -0.9998
vn 0.0012 -0.0126 0.9999
vn 0.0012 -0.0105 -0.9999
vn 0.8508 -0.0148 -0.5253
vn 0.9997 -0.0225 -0.0005
vn 0.8519 -0.0138 -0.5236
vn 0.8507 -0.0137 0.5254
vn 0.8518 -0.0148 0.5237
vn 0.0016 -0.0123 0.9999
vn 0.5362 -0.0293 0.8436
vn -0.5589 0.0267 -0.8288
vn 0.1457 0.0049 -0.9893
vn 0.1374 0.0082 -0.9905
vn -0.5642 0.0273 -0.8252
vn 0.5372 -0.0271 -0.8430
vn 0.0013 -0.0101 -0.9999
vn 0.1476 0.0080 0.9890
vn -0.5629 0.0273 0.8261
vn -0.5681 0.0270 0.8225
vn 0.1393 0.0051 0.9902
vn 0.9997 -0.0244 -0.0008
vn -0.9994 0.0352 0.0023
vn -0.9994 0.0352 0.0022
# 123 vertex normals

vt 0.1155 0.8391 0.0000
vt 0.0428 0.8443 0.0000
vt 0.0626 0.8094 0.0000
vt 0.1127 0.7925 0.0000
vt 0.1635 0.8380 0.0000
vt 0.1642 0.7904 0.0000
vt 0.2204 0.8061 0.0000
vt 0.2337 0.8417 0.0000
vt 0.1168 0.8798 0.0000
vt 0.0323 0.8798 0.0000
vt 0.1629 0.8799 0.0000
vt 0.2330 0.8800 0.0000
vt 0.2734 0.8804 0.0000
vt 0.2741 0.8576 0.0000
vt 0.1155 0.9207 0.0000
vt 0.0426 0.9156 0.0000
vt 0.1634 0.9217 0.0000
vt 0.2335 0.9178 0.0000
vt 0.2734 0.9025 0.0000
vt 0.1126 0.9672 0.0000
vt 0.0625 0.9503 0.0000
vt 0.1641 0.9694 0.0000
vt 0.2203 0.9537 0.0000
vt 0.3276 0.8577 0.0000
vt 0.3273 0.8802 0.0000
vt 0.3275 0.9028 0.0000
vt 0.9164 0.8569 0.0000
vt 0.9253 0.8803 0.0000
vt 0.9162 0.9035 0.0000
vt 0.9405 0.8714 0.0000
vt 0.9379 0.8805 0.0000
vt 0.9405 0.8895 0.0000
vt 0.9639 0.8721 0.0000
vt 0.9494 0.8669 0.0000
vt 0.9458 0.8585 0.0000
vt 0.9745 0.8592 0.0000
vt 0.9457 0.9024 0.0000
vt 0.9493 0.8941 0.0000
vt 0.9639 0.8889 0.0000
vt 0.9744 0.9017 0.0000
vt 0.9734 0.8805 0.0000
vt 0.9857 0.8805 0.0000
vt 0.0553 0.7515 0.0000
vt 0.0355 0.7142 0.0000
vt 0.1108 0.7210 0.0000
vt 0.1085 0.7699 0.0000
vt 0.1621 0.7223 0.0000
vt 0.1640 0.7721 0.0000
vt 0.2336 0.7144 0.0000
vt 0.2232 0.7515 0.0000
vt 0.0245 0.6753 0.0000
vt 0.1116 0.6766 0.0000
vt 0.1612 0.6766 0.0000
vt 0.2326 0.6766 0.0000
vt 0.2716 0.6766 0.0000
vt 0.2716 0.6991 0.0000
vt 0.0359 0.6366 0.0000
vt 0.1113 0.6322 0.0000
vt 0.1624 0.6309 0.0000
vt 0.2338 0.6387 0.0000
vt 0.2716 0.6540 0.0000
vt 0.0566 0.5998 0.0000
vt 0.1098 0.5832 0.0000
vt 0.1645 0.5810 0.0000
vt 0.2235 0.6017 0.0000
vt 0.3243 0.6991 0.0000
vt 0.3243 0.6766 0.0000
vt 0.3243 0.6541 0.0000
vt 0.9130 0.6990 0.0000
vt 0.9227 0.6766 0.0000
vt 0.9130 0.6541 0.0000
vt 0.9386 0.6851 0.0000
vt 0.9370 0.6766 0.0000
vt 0.9386 0.6680 0.0000
vt 0.9421 0.6990 0.0000
vt 0.9460 0.6905 0.0000
vt 0.9597 0.6851 0.0000
vt 0.9712 0.6990 0.0000
vt 0.9597 0.6680 0.0000
vt 0.9460 0.6627 0.0000
vt 0.9421 0.6541 0.0000
vt 0.9712 0.6541 0.0000
vt 0.9676 0.6766 0.0000
vt 0.9819 0.6766 0.0000
vt 0.0601 0.8063 0.0000
vt 0.1119 0.7879 0.0000
vt 0.0384 0.8424 0.0000
vt 0.1642 0.7856 0.0000
vt 0.2227 0.8025 0.0000
vt 0.2372 0.8376 0.0000
vt 0.0280 0.8798 0.0000
vt 0.2753 0.8528 0.0000
vt 0.0382 0.9174 0.0000
vt 0.2748 0.9073 0.0000
vt 0.2368 0.9219 0.0000
vt 0.0600 0.9535 0.0000
vt 0.1118 0.9718 0.0000
vt 0.1641 0.9742 0.0000
vt 0.2225 0.9572 0.0000
vt 0.3282 0.8527 0.0000
vt 0.3280 0.9078 0.0000
vt 0.9172 0.8517 0.0000
vt 0.9170 0.9087 0.0000
vt 0.9470 0.8771 0.0000
vt 0.9461 0.8805 0.0000
vt 0.9469 0.8839 0.0000
vt 0.9466 0.8535 0.0000
vt 0.9766 0.8570 0.0000
vt 0.9607 0.8793 0.0000
vt 0.9503 0.8758 0.0000
vt 0.9765 0.9040 0.0000
vt 0.9465 0.9074 0.0000
vt 0.9503 0.8852 0.0000
vt 0.9611 0.8804 0.0000
vt 0.9886 0.8805 0.0000
vt 0.9707 0.8805 0.0000
vt 0.1109 0.7832 0.0000
vt 0.0572 0.8029 0.0000
vt 0.0339 0.8405 0.0000
vt 0.1647 0.7808 0.0000
vt 0.2253 0.7990 0.0000
vt 0.2402 0.8343 0.0000
vt 0.0233 0.8799 0.0000
vt 0.2765 0.8479 0.0000
vt 0.0337 0.9194 0.0000
vt 0.2398 0.9254 0.0000
vt 0.2762 0.9121 0.0000
vt 0.0571 0.9569 0.0000
vt 0.1109 0.9766 0.0000
vt 0.1646 0.9790 0.0000
vt 0.2252 0.9608 0.0000
vt 0.3285 0.8476 0.0000
vt 0.3283 0.9129 0.0000
vt 0.9175 0.8466 0.0000
vt 0.9173 0.9139 0.0000
vt 0.9788 0.8545 0.0000
vt 0.9476 0.8484 0.0000
vt 0.9474 0.9125 0.0000
vt 0.9787 0.9065 0.0000
vt 0.9919 0.8805 0.0000
# 140 texture coords

g BakingSpoon01
usemtl 10___Default
s 1
f 1/1/1 2/2/2 3/3/3 4/4/4 
f 5/5/5 1/1/1 4/4/4 6/6/6 
f 7/7/7 8/8/8 5/5/5 6/6/6 
f 9/9/9 10/10/10 2/2/2 1/1/1 
f 11/11/11 9/9/9 1/1/1 5/5/5 
f 12/12/12 11/11/11 5/5/5 8/8/8 
f 13/13/13 12/12/12 8/8/8 14/14/14 
f 15/15/15 16/16/16 10/10/10 9/9/9 
f 11/11/11 17/17/17 15/15/15 9/9/9 
f 18/18/18 17/17/17 11/11/11 12/12/12 
f 19/19/19 18/18/18 12/12/12 13/13/13 
f 15/15/15 20/20/20 21/21/21 16/16/16 
f 22/22/22 20/20/20 15/15/15 17/17/17 
f 23/23/23 22/22/22 17/17/17 18/18/18 
f 13/13/13 14/14/14 24/24/24 25/25/25 
f 19/19/19 13/13/13 25/25/25 26/26/26 
f 25/25/25 24/24/24 27/27/27 28/28/28 
f 29/29/29 26/26/26 25/25/25 28/28/28 
f 28/28/28 27/27/27 30/30/30 31/31/31 
f 32/32/32 29/29/29 28/28/28 31/31/31 
f 33/33/33 34/34/34 35/35/35 36/36/36 
f 37/37/37 38/38/38 39/39/39 40/40/40 
f 37/37/37 29/29/29 32/32/32 38/38/38 
f 40/40/40 39/39/39 41/41/41 42/42/42 
f 41/41/41 33/33/33 36/36/36 42/42/42 
f 30/30/30 27/27/27 35/35/35 34/34/34 
f 43/43/43 44/44/44 45/45/45 46/46/46 
f 46/46/46 45/45/45 47/47/47 48/48/48 
f 47/47/47 49/49/49 50/50/50 48/48/48 
f 44/44/44 51/51/51 52/52/52 45/45/45 
f 45/45/45 52/52/52 53/53/53 47/47/47 
f 47/47/47 53/53/53 54/54/54 49/49/49 
f 49/49/49 54/54/54 55/55/55 56/56/56 
f 51/51/51 57/57/57 58/58/58 52/52/52 
f 58/58/58 59/59/59 53/53/53 52/52/52 
f 53/53/53 59/59/59 60/60/60 54/54/54 
f 54/54/54 60/60/60 61/61/61 55/55/55 
f 62/62/62 63/63/63 58/58/58 57/57/57 
f 58/58/58 63/63/63 64/64/64 59/59/59 
f 59/59/59 64/64/64 65/65/65 60/60/60 
f 66/66/66 56/56/56 55/55/55 67/67/67 
f 67/67/67 55/55/55 61/61/61 68/68/68 
f 69/69/69 66/66/66 67/67/67 70/70/70 
f 67/67/67 68/68/68 71/71/71 70/70/70 
f 72/72/72 69/69/69 70/70/70 73/73/73 
f 70/70/70 71/71/71 74/74/74 73/73/73 
f 75/75/75 76/76/76 77/77/77 78/78/78 
f 79/79/79 80/80/80 81/81/81 82/82/82 
f 74/74/74 71/71/71 81/81/81 80/80/80 
f 83/83/83 79/79/79 82/82/82 84/84/84 
f 78/78/78 77/77/77 83/83/83 84/84/84 
f 75/75/75 69/69/69 72/72/72 76/76/76 
f 3/3/3 85/85/85 86/86/86 4/4/4 
f 2/2/2 87/87/87 85/85/85 3/3/3 
f 4/4/4 86/86/86 88/88/88 6/6/6 
f 6/6/6 88/88/88 89/89/89 7/7/7 
f 7/7/7 89/89/89 90/90/90 8/8/8 
f 10/10/10 91/91/91 87/87/87 2/2/2 
f 8/8/8 90/90/90 92/92/92 14/14/14 
f 16/16/16 93/93/93 91/91/91 10/10/10 
f 19/19/19 94/94/94 95/95/95 18/18/18 
f 21/21/21 96/96/96 93/93/93 16/16/16 
f 20/20/20 97/97/97 96/96/96 21/21/21 
f 22/22/22 98/98/98 97/97/97 20/20/20 
f 18/18/18 95/95/95 99/99/99 23/23/23 
f 23/23/23 99/99/99 98/98/98 22/22/22 
f 14/14/14 92/92/92 100/100/100 24/24/24 
f 26/26/26 101/101/101 94/94/94 19/19/19 
f 24/24/24 100/100/100 102/102/102 27/27/27 
f 29/29/29 103/103/103 101/101/101 26/26/26 
s 2
f 72/104/104 73/105/105 31/31/105 30/30/106 
f 73/105/105 74/106/107 32/32/108 31/31/105 
s 1
f 35/35/35 104/107/109 105/108/110 36/36/36 
s 2
f 77/109/111 76/110/112 34/34/113 33/33/114 
s 1
f 40/40/40 106/111/115 107/112/116 37/37/37 
s 2
f 80/113/117 79/114/118 39/39/119 38/38/120 
f 74/106/107 80/113/117 38/38/120 32/32/108 
s 1
f 37/37/37 107/112/116 103/103/103 29/29/29 
f 42/42/42 108/115/121 106/111/115 40/40/40 
s 2
f 79/114/118 83/116/122 41/41/123 39/39/119 
s 1
f 36/36/36 105/108/110 108/115/121 42/42/42 
s 2
f 83/116/122 77/109/111 33/33/114 41/41/123 
f 76/110/112 72/104/104 30/30/106 34/34/113 
s 1
f 27/27/27 102/102/102 104/107/109 35/35/35 
f 46/117/46 86/86/86 85/85/85 43/118/43 
f 43/118/43 85/85/85 87/87/87 44/119/44 
f 48/120/48 88/88/88 86/86/86 46/117/46 
f 50/121/50 89/89/89 88/88/88 48/120/48 
f 49/122/49 90/90/90 89/89/89 50/121/50 
f 44/119/44 87/87/87 91/91/91 51/123/51 
f 56/124/56 92/92/92 90/90/90 49/122/49 
f 51/123/51 91/91/91 93/93/93 57/125/57 
f 60/126/60 95/95/95 94/94/94 61/127/61 
f 57/125/57 93/93/93 96/96/96 62/128/62 
f 62/128/62 96/96/96 97/97/97 63/129/63 
f 63/129/63 97/97/97 98/98/98 64/130/64 
f 65/131/65 99/99/99 95/95/95 60/126/60 
f 64/130/64 98/98/98 99/99/99 65/131/65 
f 66/132/66 100/100/100 92/92/92 56/124/56 
f 61/127/61 94/94/94 101/101/101 68/133/68 
f 69/134/69 102/102/102 100/100/100 66/132/66 
f 68/133/68 101/101/101 103/103/103 71/135/71 
f 78/136/78 105/108/110 104/107/109 75/137/75 
f 81/138/81 107/112/116 106/111/115 82/139/82 
f 71/135/71 103/103/103 107/112/116 81/138/81 
f 82/139/82 106/111/115 108/115/121 84/140/84 
f 84/140/84 108/115/121 105/108/110 78/136/78 
f 75/137/75 104/107/109 102/102/102 69/134/69 
# 108 polygons

