# 3ds Max Wavefront OBJ Exporter v0.97b - (c)2007 guruware
# File Created: 14.09.2016 11:48:37

mtllib BakingSpoon02.mtl

#
# object BakingSpoon02
#

v  -29.2622 -1.2898 5.2558
v  -36.5914 1.6000 4.1926
v  -31.9188 1.5791 8.5794
v  -26.8161 1.5108 10.6642
v  -24.6985 -1.2902 5.5416
v  -23.1672 1.5225 11.2380
v  -20.2354 1.6052 9.3899
v  -18.9729 1.6317 4.6870
v  -30.0238 -2.2545 0.0056
v  -38.8252 1.6189 0.0101
v  -25.2096 -2.2611 -0.0010
v  -19.0266 0.8634 -0.0171
v  -15.6531 2.1893 -0.0245
v  -15.6343 2.1965 2.9164
v  -29.2535 -1.2887 -5.2634
v  -36.5997 1.6116 -4.2144
v  -24.6987 -1.2901 -5.5421
v  -18.9652 1.6326 -4.6644
v  -15.6821 2.1872 -2.8656
v  -26.8160 1.5091 -10.6617
v  -31.9188 1.5791 -8.5793
v  -23.1698 1.5210 -11.2351
v  -20.2354 1.6052 -9.3899
v  -11.3841 2.4686 2.8643
v  -11.3108 3.0531 0.0000
v  -11.3841 2.4686 -2.8643
v  26.1134 -0.2117 1.5130
v  26.7264 0.1715 -0.0000
v  26.1134 -0.2117 -1.5130
v  27.7232 -0.2862 0.5745
v  27.6240 -0.2648 0.0000
v  27.7232 -0.2862 -0.5745
v  29.0699 -0.3305 0.5725
v  28.1853 -0.3083 0.9237
v  27.9416 -0.3076 1.4897
v  29.8124 -0.3810 1.4817
v  27.9416 -0.3076 -1.4897
v  28.1853 -0.3083 -0.9237
v  29.0699 -0.3305 -0.5725
v  29.8124 -0.3810 -1.4817
v  29.5781 -0.3489 -0.0000
v  30.5044 -0.3788 0.0000
v  -31.8456 0.3578 8.8664
v  -36.8484 0.3637 4.3260
v  -29.2698 -2.5214 5.6041
v  -26.5096 0.3502 11.2081
v  -24.5261 -2.5295 5.8982
v  -22.9392 0.3529 11.7964
v  -18.7363 0.3680 4.8359
v  -20.0201 0.3625 9.6685
v  -39.1970 0.3676 0.0000
v  -30.1898 -3.5327 0.0000
v  -25.0551 -3.5446 0.0000
v  -18.7916 -0.4137 0.0000
v  -15.5585 0.8491 0.0000
v  -15.5836 0.8491 2.9160
v  -36.8484 0.3637 -4.3260
v  -29.2698 -2.5214 -5.6040
v  -24.5261 -2.5295 -5.8982
v  -18.7363 0.3680 -4.8359
v  -15.5836 0.8491 -2.9160
v  -31.8456 0.3578 -8.8664
v  -26.5096 0.3502 -11.2081
v  -22.9392 0.3529 -11.7964
v  -20.0201 0.3625 -9.6684
v  -11.3859 1.0811 2.8643
v  -11.3127 -0.1104 0.0000
v  -11.3859 1.0811 -2.8643
v  26.0936 -1.1731 1.5047
v  26.7058 -1.9343 -0.0000
v  26.0935 -1.1731 -1.5047
v  27.7036 -1.1441 0.5654
v  27.6043 -1.1295 -0.0000
v  27.7036 -1.1441 -0.5654
v  27.9236 -1.1505 1.4816
v  28.1710 -1.1345 0.9171
v  29.0464 -1.0945 0.5614
v  29.7899 -1.0907 1.4702
v  29.0464 -1.0945 -0.5614
v  28.1710 -1.1345 -0.9171
v  27.9236 -1.1505 -1.4816
v  29.7899 -1.0907 -1.4702
v  29.5548 -1.0761 -0.0000
v  30.4841 -1.0361 -0.0000
v  -31.8466 1.0384 8.8309
v  -26.5804 1.0030 11.0873
v  -36.8162 1.0432 4.3081
v  -22.9885 1.0087 11.6762
v  -20.0485 1.0511 9.6439
v  -18.7717 1.0428 4.8790
v  -39.1569 1.0550 0.0053
v  -15.5936 1.5336 3.0885
v  -36.8205 1.0470 -4.3191
v  -15.6176 1.5342 -3.0628
v  -18.7680 1.0464 -4.8669
v  -31.8464 1.0373 -8.8312
v  -26.5805 1.0025 -11.0859
v  -22.9898 1.0082 -11.6746
v  -20.0485 1.0510 -9.6440
v  -11.3941 1.7742 3.0364
v  -11.3943 1.7761 -3.0364
v  26.1025 -0.6934 1.5992
v  26.1025 -0.6934 -1.5992
v  27.9322 -0.7303 1.5747
v  29.8478 -0.7364 1.5504
v  29.8478 -0.7364 -1.5504
v  27.9322 -0.7303 -1.5747
v  30.5824 -0.7067 -0.0000
# 108 vertices

vn 0.1916 0.9213 -0.3383
vn -0.2903 0.9194 0.2652
vn -0.2466 0.9120 0.3277
vn -0.1149 0.9583 0.2616
vn -0.1902 0.9439 -0.2698
vn 0.0464 0.9459 0.3212
vn 0.3638 0.8996 0.2418
vn 0.0430 0.9695 0.2411
vn 0.2176 0.9760 0.0012
vn -0.4686 0.8834 0.0083
vn -0.2135 0.9769 0.0021
vn -0.3991 0.9168 -0.0103
vn -0.2421 0.9702 -0.0035
vn 0.0246 0.8468 0.5313
vn 0.1951 0.9217 0.3354
vn -0.2998 0.9143 -0.2722
vn -0.1970 0.9451 0.2608
vn 0.0479 0.9725 -0.2278
vn -0.0567 0.8622 -0.5034
vn -0.1163 0.9598 -0.2555
vn -0.2330 0.9133 -0.3342
vn 0.0257 0.9480 -0.3174
vn 0.3682 0.9011 -0.2289
vn -0.0085 0.7430 0.6692
vn -0.0363 0.9992 0.0170
vn 0.0155 0.7303 -0.6829
vn 0.0827 0.6791 0.7294
vn 0.2114 0.9774 -0.0000
vn 0.0843 0.6786 -0.7297
vn 0.1925 0.9774 0.0870
vn 0.4372 0.8994 0.0000
vn 0.1925 0.9774 -0.0870
vn 0.0443 0.9989 0.0177
vn 0.0327 0.9994 0.0128
vn 0.0391 0.7678 0.6395
vn 0.4105 0.6698 0.6187
vn 0.0372 0.7674 -0.6401
vn 0.0327 0.9994 -0.0128
vn 0.0443 0.9989 -0.0177
vn 0.4137 0.6692 -0.6173
vn 0.0396 0.9992 0.0000
vn 0.7146 0.6996 -0.0029
vn -0.4934 -0.4253 0.7588
vn -0.7054 -0.4698 0.5308
vn -0.1920 -0.9198 0.3421
vn -0.2293 -0.4231 0.8766
vn 0.1881 -0.9448 0.2683
vn 0.2182 -0.4000 0.8902
vn 0.6842 -0.6217 0.3812
vn 0.7282 -0.4561 0.5116
vn -0.8879 -0.4600 -0.0020
vn -0.2171 -0.9761 -0.0014
vn 0.2114 -0.9774 -0.0021
vn 0.3958 -0.9183 0.0114
vn 0.0964 -0.9933 0.0635
vn 0.2341 -0.8147 0.5305
vn -0.7022 -0.4803 -0.5256
vn -0.1957 -0.9202 -0.3391
vn 0.1948 -0.9460 -0.2590
vn 0.6719 -0.6278 -0.3929
vn 0.2387 -0.7622 -0.6018
vn -0.4912 -0.4242 -0.7607
vn -0.2380 -0.4105 -0.8803
vn 0.2144 -0.3987 -0.8917
vn 0.7305 -0.4595 -0.5052
vn -0.0293 -0.6684 0.7432
vn -0.0890 -0.9955 0.0327
vn 0.0181 -0.6398 -0.7683
vn 0.0422 -0.6332 0.7728
vn 0.2558 -0.9667 -0.0000
vn 0.0406 -0.6338 -0.7724
vn 0.2857 -0.9514 0.1146
vn 0.6672 -0.7449 0.0000
vn 0.2857 -0.9514 -0.1146
vn 0.0233 -0.7853 0.6186
vn 0.0372 -0.9992 -0.0120
vn 0.0277 -0.9995 -0.0168
vn 0.3914 -0.7041 0.5925
vn 0.0277 -0.9995 0.0168
vn 0.0372 -0.9992 0.0120
vn 0.0247 -0.7861 -0.6177
vn 0.3901 -0.7046 -0.5927
vn 0.0347 -0.9994 -0.0000
vn 0.7036 -0.7106 0.0019
vn -0.5233 0.1810 0.8327
vn -0.2497 0.3599 0.8989
vn -0.7678 0.2309 0.5976
vn 0.2068 0.4203 0.8835
vn 0.7743 0.2698 0.5724
vn 0.7773 0.2171 0.5905
vn -0.9624 0.2715 0.0034
vn 0.2557 0.0254 0.9664
vn -0.7721 0.2122 -0.5991
vn 0.2623 0.0709 -0.9624
vn 0.7704 0.2248 -0.5965
vn -0.5142 0.1828 -0.8380
vn -0.2531 0.3627 -0.8969
vn 0.1918 0.4203 -0.8869
vn 0.7832 0.2658 -0.5620
vn 0.0247 0.0095 0.9997
vn 0.0231 0.0105 -0.9997
vn 0.0262 -0.0127 0.9996
vn 0.0262 -0.0114 -0.9996
vn 0.8546 -0.0146 -0.5190
vn 0.9998 -0.0222 -0.0005
vn 0.8557 -0.0136 -0.5173
vn 0.8546 -0.0136 0.5191
vn 0.8556 -0.0146 0.5174
vn 0.0144 -0.0123 0.9998
vn 0.5399 -0.0292 0.8412
vn -0.5656 0.0267 -0.8243
vn 0.1455 0.0050 -0.9893
vn 0.1372 0.0083 -0.9905
vn -0.5706 0.0273 -0.8208
vn 0.5409 -0.0270 -0.8407
vn 0.0140 -0.0104 -0.9998
vn 0.1475 0.0081 0.9890
vn -0.5695 0.0273 0.8215
vn -0.5745 0.0269 0.8181
vn 0.1392 0.0051 0.9903
vn 0.9997 -0.0244 -0.0008
vn -0.9994 0.0350 0.0023
vn -0.9994 0.0350 0.0022
# 123 vertex normals

vt 0.1155 0.8391 0.0000
vt 0.0428 0.8443 0.0000
vt 0.0626 0.8094 0.0000
vt 0.1127 0.7925 0.0000
vt 0.1635 0.8380 0.0000
vt 0.1642 0.7904 0.0000
vt 0.2204 0.8061 0.0000
vt 0.2337 0.8417 0.0000
vt 0.1168 0.8798 0.0000
vt 0.0323 0.8798 0.0000
vt 0.1629 0.8799 0.0000
vt 0.2330 0.8800 0.0000
vt 0.2734 0.8804 0.0000
vt 0.2741 0.8576 0.0000
vt 0.1155 0.9207 0.0000
vt 0.0426 0.9156 0.0000
vt 0.1634 0.9217 0.0000
vt 0.2335 0.9178 0.0000
vt 0.2734 0.9025 0.0000
vt 0.1126 0.9672 0.0000
vt 0.0625 0.9503 0.0000
vt 0.1641 0.9694 0.0000
vt 0.2203 0.9537 0.0000
vt 0.3276 0.8577 0.0000
vt 0.3273 0.8802 0.0000
vt 0.3275 0.9028 0.0000
vt 0.9164 0.8569 0.0000
vt 0.9253 0.8803 0.0000
vt 0.9162 0.9035 0.0000
vt 0.9405 0.8714 0.0000
vt 0.9379 0.8805 0.0000
vt 0.9405 0.8895 0.0000
vt 0.9639 0.8721 0.0000
vt 0.9494 0.8669 0.0000
vt 0.9458 0.8585 0.0000
vt 0.9745 0.8592 0.0000
vt 0.9457 0.9024 0.0000
vt 0.9493 0.8941 0.0000
vt 0.9639 0.8889 0.0000
vt 0.9744 0.9017 0.0000
vt 0.9734 0.8805 0.0000
vt 0.9857 0.8805 0.0000
vt 0.0553 0.7515 0.0000
vt 0.0355 0.7142 0.0000
vt 0.1108 0.7210 0.0000
vt 0.1085 0.7699 0.0000
vt 0.1621 0.7223 0.0000
vt 0.1640 0.7721 0.0000
vt 0.2336 0.7144 0.0000
vt 0.2232 0.7515 0.0000
vt 0.0245 0.6753 0.0000
vt 0.1116 0.6766 0.0000
vt 0.1612 0.6766 0.0000
vt 0.2326 0.6766 0.0000
vt 0.2716 0.6766 0.0000
vt 0.2716 0.6991 0.0000
vt 0.0359 0.6366 0.0000
vt 0.1113 0.6322 0.0000
vt 0.1624 0.6309 0.0000
vt 0.2338 0.6387 0.0000
vt 0.2716 0.6540 0.0000
vt 0.0566 0.5998 0.0000
vt 0.1098 0.5832 0.0000
vt 0.1645 0.5810 0.0000
vt 0.2235 0.6017 0.0000
vt 0.3243 0.6991 0.0000
vt 0.3243 0.6766 0.0000
vt 0.3243 0.6541 0.0000
vt 0.9130 0.6990 0.0000
vt 0.9227 0.6766 0.0000
vt 0.9130 0.6541 0.0000
vt 0.9386 0.6851 0.0000
vt 0.9370 0.6766 0.0000
vt 0.9386 0.6680 0.0000
vt 0.9421 0.6990 0.0000
vt 0.9460 0.6905 0.0000
vt 0.9597 0.6851 0.0000
vt 0.9712 0.6990 0.0000
vt 0.9597 0.6680 0.0000
vt 0.9460 0.6627 0.0000
vt 0.9421 0.6541 0.0000
vt 0.9712 0.6541 0.0000
vt 0.9676 0.6766 0.0000
vt 0.9819 0.6766 0.0000
vt 0.0601 0.8063 0.0000
vt 0.1119 0.7879 0.0000
vt 0.0384 0.8424 0.0000
vt 0.1642 0.7856 0.0000
vt 0.2227 0.8025 0.0000
vt 0.2372 0.8376 0.0000
vt 0.0280 0.8798 0.0000
vt 0.2753 0.8528 0.0000
vt 0.0382 0.9174 0.0000
vt 0.2748 0.9073 0.0000
vt 0.2368 0.9219 0.0000
vt 0.0600 0.9535 0.0000
vt 0.1118 0.9718 0.0000
vt 0.1641 0.9742 0.0000
vt 0.2225 0.9572 0.0000
vt 0.3282 0.8527 0.0000
vt 0.3280 0.9078 0.0000
vt 0.9172 0.8517 0.0000
vt 0.9170 0.9087 0.0000
vt 0.9470 0.8771 0.0000
vt 0.9461 0.8805 0.0000
vt 0.9469 0.8839 0.0000
vt 0.9466 0.8535 0.0000
vt 0.9766 0.8570 0.0000
vt 0.9607 0.8793 0.0000
vt 0.9503 0.8758 0.0000
vt 0.9765 0.9040 0.0000
vt 0.9465 0.9074 0.0000
vt 0.9503 0.8852 0.0000
vt 0.9611 0.8804 0.0000
vt 0.9886 0.8805 0.0000
vt 0.9707 0.8805 0.0000
vt 0.1109 0.7832 0.0000
vt 0.0572 0.8029 0.0000
vt 0.0339 0.8405 0.0000
vt 0.1647 0.7808 0.0000
vt 0.2253 0.7990 0.0000
vt 0.2402 0.8343 0.0000
vt 0.0233 0.8799 0.0000
vt 0.2765 0.8479 0.0000
vt 0.0337 0.9194 0.0000
vt 0.2398 0.9254 0.0000
vt 0.2762 0.9121 0.0000
vt 0.0571 0.9569 0.0000
vt 0.1109 0.9766 0.0000
vt 0.1646 0.9790 0.0000
vt 0.2252 0.9608 0.0000
vt 0.3285 0.8476 0.0000
vt 0.3283 0.9129 0.0000
vt 0.9175 0.8466 0.0000
vt 0.9173 0.9139 0.0000
vt 0.9788 0.8545 0.0000
vt 0.9476 0.8484 0.0000
vt 0.9474 0.9125 0.0000
vt 0.9787 0.9065 0.0000
vt 0.9919 0.8805 0.0000
# 140 texture coords

g BakingSpoon02
usemtl 10___Default
s 1
f 1/1/1 2/2/2 3/3/3 4/4/4 
f 5/5/5 1/1/1 4/4/4 6/6/6 
f 7/7/7 8/8/8 5/5/5 6/6/6 
f 9/9/9 10/10/10 2/2/2 1/1/1 
f 11/11/11 9/9/9 1/1/1 5/5/5 
f 12/12/12 11/11/11 5/5/5 8/8/8 
f 13/13/13 12/12/12 8/8/8 14/14/14 
f 15/15/15 16/16/16 10/10/10 9/9/9 
f 11/11/11 17/17/17 15/15/15 9/9/9 
f 18/18/18 17/17/17 11/11/11 12/12/12 
f 19/19/19 18/18/18 12/12/12 13/13/13 
f 15/15/15 20/20/20 21/21/21 16/16/16 
f 22/22/22 20/20/20 15/15/15 17/17/17 
f 23/23/23 22/22/22 17/17/17 18/18/18 
f 13/13/13 14/14/14 24/24/24 25/25/25 
f 19/19/19 13/13/13 25/25/25 26/26/26 
f 25/25/25 24/24/24 27/27/27 28/28/28 
f 29/29/29 26/26/26 25/25/25 28/28/28 
f 28/28/28 27/27/27 30/30/30 31/31/31 
f 32/32/32 29/29/29 28/28/28 31/31/31 
f 33/33/33 34/34/34 35/35/35 36/36/36 
f 37/37/37 38/38/38 39/39/39 40/40/40 
f 37/37/37 29/29/29 32/32/32 38/38/38 
f 40/40/40 39/39/39 41/41/41 42/42/42 
f 41/41/41 33/33/33 36/36/36 42/42/42 
f 30/30/30 27/27/27 35/35/35 34/34/34 
f 43/43/43 44/44/44 45/45/45 46/46/46 
f 46/46/46 45/45/45 47/47/47 48/48/48 
f 47/47/47 49/49/49 50/50/50 48/48/48 
f 44/44/44 51/51/51 52/52/52 45/45/45 
f 45/45/45 52/52/52 53/53/53 47/47/47 
f 47/47/47 53/53/53 54/54/54 49/49/49 
f 49/49/49 54/54/54 55/55/55 56/56/56 
f 51/51/51 57/57/57 58/58/58 52/52/52 
f 58/58/58 59/59/59 53/53/53 52/52/52 
f 53/53/53 59/59/59 60/60/60 54/54/54 
f 54/54/54 60/60/60 61/61/61 55/55/55 
f 62/62/62 63/63/63 58/58/58 57/57/57 
f 58/58/58 63/63/63 64/64/64 59/59/59 
f 59/59/59 64/64/64 65/65/65 60/60/60 
f 66/66/66 56/56/56 55/55/55 67/67/67 
f 67/67/67 55/55/55 61/61/61 68/68/68 
f 69/69/69 66/66/66 67/67/67 70/70/70 
f 67/67/67 68/68/68 71/71/71 70/70/70 
f 72/72/72 69/69/69 70/70/70 73/73/73 
f 70/70/70 71/71/71 74/74/74 73/73/73 
f 75/75/75 76/76/76 77/77/77 78/78/78 
f 79/79/79 80/80/80 81/81/81 82/82/82 
f 74/74/74 71/71/71 81/81/81 80/80/80 
f 83/83/83 79/79/79 82/82/82 84/84/84 
f 78/78/78 77/77/77 83/83/83 84/84/84 
f 75/75/75 69/69/69 72/72/72 76/76/76 
f 3/3/3 85/85/85 86/86/86 4/4/4 
f 2/2/2 87/87/87 85/85/85 3/3/3 
f 4/4/4 86/86/86 88/88/88 6/6/6 
f 6/6/6 88/88/88 89/89/89 7/7/7 
f 7/7/7 89/89/89 90/90/90 8/8/8 
f 10/10/10 91/91/91 87/87/87 2/2/2 
f 8/8/8 90/90/90 92/92/92 14/14/14 
f 16/16/16 93/93/93 91/91/91 10/10/10 
f 19/19/19 94/94/94 95/95/95 18/18/18 
f 21/21/21 96/96/96 93/93/93 16/16/16 
f 20/20/20 97/97/97 96/96/96 21/21/21 
f 22/22/22 98/98/98 97/97/97 20/20/20 
f 18/18/18 95/95/95 99/99/99 23/23/23 
f 23/23/23 99/99/99 98/98/98 22/22/22 
f 14/14/14 92/92/92 100/100/100 24/24/24 
f 26/26/26 101/101/101 94/94/94 19/19/19 
f 24/24/24 100/100/100 102/102/102 27/27/27 
f 29/29/29 103/103/103 101/101/101 26/26/26 
s 2
f 72/104/104 73/105/105 31/31/105 30/30/106 
f 73/105/105 74/106/107 32/32/108 31/31/105 
s 1
f 35/35/35 104/107/109 105/108/110 36/36/36 
s 2
f 77/109/111 76/110/112 34/34/113 33/33/114 
s 1
f 40/40/40 106/111/115 107/112/116 37/37/37 
s 2
f 80/113/117 79/114/118 39/39/119 38/38/120 
f 74/106/107 80/113/117 38/38/120 32/32/108 
s 1
f 37/37/37 107/112/116 103/103/103 29/29/29 
f 42/42/42 108/115/121 106/111/115 40/40/40 
s 2
f 79/114/118 83/116/122 41/41/123 39/39/119 
s 1
f 36/36/36 105/108/110 108/115/121 42/42/42 
s 2
f 83/116/122 77/109/111 33/33/114 41/41/123 
f 76/110/112 72/104/104 30/30/106 34/34/113 
s 1
f 27/27/27 102/102/102 104/107/109 35/35/35 
f 46/117/46 86/86/86 85/85/85 43/118/43 
f 43/118/43 85/85/85 87/87/87 44/119/44 
f 48/120/48 88/88/88 86/86/86 46/117/46 
f 50/121/50 89/89/89 88/88/88 48/120/48 
f 49/122/49 90/90/90 89/89/89 50/121/50 
f 44/119/44 87/87/87 91/91/91 51/123/51 
f 56/124/56 92/92/92 90/90/90 49/122/49 
f 51/123/51 91/91/91 93/93/93 57/125/57 
f 60/126/60 95/95/95 94/94/94 61/127/61 
f 57/125/57 93/93/93 96/96/96 62/128/62 
f 62/128/62 96/96/96 97/97/97 63/129/63 
f 63/129/63 97/97/97 98/98/98 64/130/64 
f 65/131/65 99/99/99 95/95/95 60/126/60 
f 64/130/64 98/98/98 99/99/99 65/131/65 
f 66/132/66 100/100/100 92/92/92 56/124/56 
f 61/127/61 94/94/94 101/101/101 68/133/68 
f 69/134/69 102/102/102 100/100/100 66/132/66 
f 68/133/68 101/101/101 103/103/103 71/135/71 
f 78/136/78 105/108/110 104/107/109 75/137/75 
f 81/138/81 107/112/116 106/111/115 82/139/82 
f 71/135/71 103/103/103 107/112/116 81/138/81 
f 82/139/82 106/111/115 108/115/121 84/140/84 
f 84/140/84 108/115/121 105/108/110 78/136/78 
f 75/137/75 104/107/109 102/102/102 69/134/69 
# 108 polygons

