# 3ds Max Wavefront OBJ Exporter v0.97b - (c)2007 guruware
# File Created: 14.09.2016 11:49:21

mtllib BakingSpoon04.mtl

#
# object BakingSpoon04
#

v  -26.2474 -0.8230 2.7344
v  -30.8526 0.6102 2.3397
v  -29.6280 0.6071 4.6789
v  -26.2885 0.5823 5.5506
v  -23.0206 -0.8215 2.8090
v  -22.9709 0.5848 5.6948
v  -19.9124 0.6137 4.7101
v  -18.6371 0.6196 2.3496
v  -26.2242 -1.3071 0.0029
v  -31.5405 0.6145 0.0057
v  -23.0448 -1.3070 -0.0005
v  -18.6314 0.2432 -0.0086
v  -16.0485 0.8712 -0.0123
v  -16.0145 0.8743 1.4690
v  -26.2430 -0.8224 -2.7382
v  -30.8648 0.6158 -2.3525
v  -23.0208 -0.8215 -2.8092
v  -18.6307 0.6200 -2.3383
v  -16.0532 0.8702 -1.4433
v  -26.2868 0.5815 -5.5491
v  -29.6280 0.6071 -4.6789
v  -22.9725 0.5840 -5.6934
v  -19.9124 0.6137 -4.7101
v  -12.5236 0.9690 1.4690
v  -12.5236 1.2429 0.0000
v  -12.5236 0.9690 -1.4690
v  25.9990 -0.2573 1.4775
v  26.6347 0.0165 -0.0000
v  25.9990 -0.2573 -1.4775
v  27.6727 -0.3023 0.5689
v  27.5694 -0.2866 -0.0000
v  27.6727 -0.3023 -0.5689
v  29.0555 -0.3338 0.5709
v  28.1501 -0.3178 0.9173
v  27.9007 -0.3179 1.4772
v  29.8088 -0.3787 1.4807
v  27.9007 -0.3179 -1.4772
v  28.1501 -0.3178 -0.9173
v  29.0555 -0.3338 -0.5709
v  29.8088 -0.3787 -1.4807
v  29.5717 -0.3493 -0.0000
v  30.5043 -0.3785 -0.0000
v  -29.7861 -0.0000 4.8489
v  -31.0599 -0.0000 2.4245
v  -26.3302 -1.4409 2.9181
v  -26.3302 -0.0000 5.8363
v  -22.9392 -1.4409 2.9884
v  -22.9392 -0.0000 5.9768
v  -18.4556 -0.0000 2.4245
v  -19.7494 -0.0000 4.8489
v  -31.7524 -0.0000 -0.0000
v  -26.3302 -1.9484 -0.0000
v  -22.9392 -1.9484 -0.0000
v  -18.4556 -0.3826 -0.0000
v  -15.9741 0.2256 0.0000
v  -15.9741 0.2256 1.4690
v  -31.0599 -0.0000 -2.4245
v  -26.3302 -1.4409 -2.9181
v  -22.9392 -1.4409 -2.9884
v  -18.4556 -0.0000 -2.4245
v  -15.9741 0.2256 -1.4690
v  -29.7861 -0.0000 -4.8489
v  -26.3302 -0.0000 -5.8363
v  -22.9392 -0.0000 -5.9768
v  -19.7494 -0.0000 -4.8489
v  -12.5252 0.3190 1.4690
v  -12.5252 -0.2392 -0.0000
v  -12.5252 0.3190 -1.4690
v  25.9781 -0.9069 1.4690
v  26.6132 -1.4652 -0.0000
v  25.9781 -0.9069 -1.4690
v  27.6524 -0.9519 0.5598
v  27.5491 -0.9363 -0.0000
v  27.6524 -0.9519 -0.5598
v  27.8821 -0.9676 1.4690
v  28.1354 -0.9676 0.9107
v  29.0316 -0.9832 0.5598
v  29.7861 -1.0282 1.4690
v  29.0316 -0.9832 -0.5598
v  28.1354 -0.9676 -0.9107
v  27.8821 -0.9676 -1.4690
v  29.7861 -1.0282 -1.4690
v  29.5481 -0.9989 -0.0000
v  30.4840 -1.0282 -0.0000
v  -29.7582 0.3380 4.8271
v  -26.3218 0.3275 5.7728
v  -31.0333 0.3347 2.4131
v  -22.9456 0.3278 5.9161
v  -19.7723 0.3397 4.8367
v  -18.4840 0.3304 2.4460
v  -31.7296 0.3367 0.0030
v  -15.9797 0.5550 1.5559
v  -31.0398 0.3366 -2.4196
v  -15.9992 0.5555 -1.5429
v  -18.4810 0.3322 -2.4400
v  -29.7583 0.3374 -4.8273
v  -26.3209 0.3273 -5.7721
v  -22.9464 0.3276 -5.9153
v  -19.7723 0.3396 -4.8367
v  -12.5244 0.6437 1.5573
v  -12.5246 0.6446 -1.5573
v  25.9885 -0.5830 1.5615
v  25.9885 -0.5830 -1.5615
v  27.8913 -0.6440 1.5614
v  29.8446 -0.7060 1.5494
v  29.8446 -0.7060 -1.5494
v  27.8913 -0.6440 -1.5614
v  30.5823 -0.7067 -0.0000
# 108 vertices

vn 0.1285 0.9501 -0.2844
vn -0.3054 0.9441 0.1241
vn -0.2454 0.9102 0.3336
vn -0.0343 0.9731 0.2279
vn -0.1326 0.9503 -0.2818
vn 0.0402 0.9640 0.2629
vn 0.2436 0.9091 0.3379
vn 0.0784 0.9694 0.2327
vn 0.1633 0.9866 0.0042
vn -0.4047 0.9144 0.0066
vn -0.1627 0.9867 -0.0006
vn -0.2709 0.9625 -0.0119
vn -0.1383 0.9904 -0.0070
vn 0.0365 0.8342 0.5502
vn 0.1351 0.9508 0.2787
vn -0.3266 0.9349 -0.1387
vn -0.1332 0.9504 0.2812
vn 0.0827 0.9725 -0.2176
vn -0.0175 0.8532 -0.5213
vn -0.0372 0.9734 -0.2263
vn -0.2400 0.9095 -0.3395
vn 0.0328 0.9654 -0.2588
vn 0.2463 0.9103 -0.3325
vn -0.0158 0.7471 0.6646
vn -0.0224 0.9997 0.0112
vn -0.0001 0.7396 -0.6730
vn 0.0399 0.7315 0.6806
vn 0.1372 0.9905 -0.0000
vn 0.0399 0.7315 -0.6806
vn 0.1287 0.9897 0.0622
vn 0.3085 0.9512 0.0000
vn 0.1287 0.9897 -0.0622
vn 0.0368 0.9992 0.0170
vn 0.0227 0.9997 0.0103
vn 0.0246 0.7857 0.6181
vn 0.4036 0.6780 0.6144
vn 0.0225 0.7865 -0.6172
vn 0.0227 0.9997 -0.0103
vn 0.0368 0.9992 -0.0170
vn 0.4074 0.6781 -0.6117
vn 0.0363 0.9993 0.0000
vn 0.7146 0.6995 -0.0017
vn -0.5711 -0.4661 0.6757
vn -0.7921 -0.5198 0.3199
vn -0.1273 -0.9507 0.2827
vn -0.1367 -0.4271 0.8938
vn 0.1319 -0.9509 0.2801
vn 0.1302 -0.4230 0.8967
vn 0.5444 -0.6717 0.5024
vn 0.5830 -0.4744 0.6595
vn -0.8610 -0.5085 -0.0059
vn -0.1631 -0.9866 -0.0045
vn 0.1625 -0.9867 0.0008
vn 0.2704 -0.9627 0.0132
vn 0.0641 -0.9970 0.0436
vn 0.1469 -0.8143 0.5616
vn -0.7829 -0.5399 -0.3091
vn -0.1342 -0.9515 -0.2769
vn 0.1322 -0.9509 -0.2797
vn 0.5338 -0.6707 -0.5150
vn 0.1505 -0.7739 -0.6151
vn -0.5696 -0.4650 -0.6778
vn -0.1417 -0.4234 -0.8948
vn 0.1282 -0.4225 -0.8973
vn 0.5843 -0.4762 -0.6571
vn -0.0336 -0.6829 0.7297
vn -0.0528 -0.9984 0.0219
vn -0.0016 -0.6667 -0.7453
vn 0.0087 -0.6925 0.7213
vn 0.1713 -0.9852 -0.0000
vn 0.0087 -0.6926 -0.7213
vn 0.1647 -0.9829 0.0823
vn 0.4920 -0.8706 -0.0000
vn 0.1647 -0.9829 -0.0823
vn -0.0235 -0.8016 0.5973
vn -0.0226 -0.9997 -0.0102
vn -0.0368 -0.9992 -0.0171
vn 0.3572 -0.7255 0.5882
vn -0.0368 -0.9992 0.0171
vn -0.0226 -0.9997 0.0102
vn -0.0218 -0.8011 -0.5981
vn 0.3553 -0.7251 -0.5899
vn -0.0363 -0.9993 -0.0000
vn 0.6745 -0.7383 0.0003
vn -0.5899 0.3403 0.7322
vn -0.1360 0.4326 0.8913
vn -0.8725 0.3381 0.3527
vn 0.1310 0.4206 0.8977
vn 0.6134 0.3137 0.7248
vn 0.6157 0.2718 0.7396
vn -0.9495 0.3139 0.0012
vn 0.1636 0.0220 0.9863
vn -0.8799 0.3153 -0.3554
vn 0.1697 0.0718 -0.9829
vn 0.6094 0.2808 -0.7414
vn -0.5856 0.3392 -0.7362
vn -0.1416 0.4354 -0.8890
vn 0.1246 0.4225 -0.8977
vn 0.6169 0.3132 -0.7220
vn -0.0002 0.0046 1.0000
vn -0.0011 0.0059 -1.0000
vn -0.0005 -0.0127 0.9999
vn -0.0004 -0.0128 -0.9999
vn 0.8457 -0.0197 -0.5332
vn 0.9995 -0.0306 -0.0007
vn 0.8466 -0.0184 -0.5319
vn 0.8457 -0.0183 0.5334
vn 0.8465 -0.0197 0.5321
vn 0.0014 -0.0118 0.9999
vn 0.5345 -0.0320 0.8446
vn -0.5611 0.0326 -0.8271
vn 0.1276 0.0067 -0.9918
vn 0.1301 0.0097 -0.9915
vn -0.5623 0.0321 -0.8263
vn 0.5355 -0.0333 -0.8439
vn 0.0009 -0.0139 -0.9999
vn 0.1296 0.0097 0.9915
vn -0.5654 0.0322 0.8242
vn -0.5665 0.0327 0.8234
vn 0.1319 0.0066 0.9912
vn 0.9995 -0.0304 -0.0009
vn -0.9992 0.0399 0.0028
# 122 vertex normals

vt 0.1155 0.8391 0.0000
vt 0.0428 0.8443 0.0000
vt 0.0626 0.8094 0.0000
vt 0.1127 0.7925 0.0000
vt 0.1635 0.8380 0.0000
vt 0.1642 0.7904 0.0000
vt 0.2204 0.8061 0.0000
vt 0.2337 0.8417 0.0000
vt 0.1168 0.8798 0.0000
vt 0.0323 0.8798 0.0000
vt 0.1629 0.8799 0.0000
vt 0.2330 0.8800 0.0000
vt 0.2734 0.8804 0.0000
vt 0.2741 0.8576 0.0000
vt 0.1155 0.9207 0.0000
vt 0.0426 0.9156 0.0000
vt 0.1634 0.9217 0.0000
vt 0.2335 0.9178 0.0000
vt 0.2734 0.9025 0.0000
vt 0.1126 0.9672 0.0000
vt 0.0625 0.9503 0.0000
vt 0.1641 0.9694 0.0000
vt 0.2203 0.9537 0.0000
vt 0.3276 0.8577 0.0000
vt 0.3273 0.8802 0.0000
vt 0.3275 0.9028 0.0000
vt 0.9164 0.8569 0.0000
vt 0.9253 0.8803 0.0000
vt 0.9162 0.9035 0.0000
vt 0.9405 0.8714 0.0000
vt 0.9379 0.8805 0.0000
vt 0.9405 0.8895 0.0000
vt 0.9639 0.8721 0.0000
vt 0.9494 0.8669 0.0000
vt 0.9458 0.8585 0.0000
vt 0.9745 0.8592 0.0000
vt 0.9457 0.9024 0.0000
vt 0.9493 0.8941 0.0000
vt 0.9639 0.8889 0.0000
vt 0.9744 0.9017 0.0000
vt 0.9734 0.8805 0.0000
vt 0.9857 0.8805 0.0000
vt 0.0553 0.7515 0.0000
vt 0.0355 0.7142 0.0000
vt 0.1108 0.7210 0.0000
vt 0.1085 0.7699 0.0000
vt 0.1621 0.7223 0.0000
vt 0.1640 0.7721 0.0000
vt 0.2336 0.7144 0.0000
vt 0.2232 0.7515 0.0000
vt 0.0245 0.6753 0.0000
vt 0.1116 0.6766 0.0000
vt 0.1612 0.6766 0.0000
vt 0.2326 0.6766 0.0000
vt 0.2716 0.6766 0.0000
vt 0.2716 0.6991 0.0000
vt 0.0359 0.6366 0.0000
vt 0.1113 0.6322 0.0000
vt 0.1624 0.6309 0.0000
vt 0.2338 0.6387 0.0000
vt 0.2716 0.6540 0.0000
vt 0.0566 0.5998 0.0000
vt 0.1098 0.5832 0.0000
vt 0.1645 0.5810 0.0000
vt 0.2235 0.6017 0.0000
vt 0.3243 0.6991 0.0000
vt 0.3243 0.6766 0.0000
vt 0.3243 0.6541 0.0000
vt 0.9130 0.6990 0.0000
vt 0.9227 0.6766 0.0000
vt 0.9130 0.6541 0.0000
vt 0.9386 0.6851 0.0000
vt 0.9370 0.6766 0.0000
vt 0.9386 0.6680 0.0000
vt 0.9421 0.6990 0.0000
vt 0.9460 0.6905 0.0000
vt 0.9597 0.6851 0.0000
vt 0.9712 0.6990 0.0000
vt 0.9597 0.6680 0.0000
vt 0.9460 0.6627 0.0000
vt 0.9421 0.6541 0.0000
vt 0.9712 0.6541 0.0000
vt 0.9676 0.6766 0.0000
vt 0.9819 0.6766 0.0000
vt 0.0601 0.8063 0.0000
vt 0.1119 0.7879 0.0000
vt 0.0384 0.8424 0.0000
vt 0.1642 0.7856 0.0000
vt 0.2227 0.8025 0.0000
vt 0.2372 0.8376 0.0000
vt 0.0280 0.8798 0.0000
vt 0.2753 0.8528 0.0000
vt 0.0382 0.9174 0.0000
vt 0.2748 0.9073 0.0000
vt 0.2368 0.9219 0.0000
vt 0.0600 0.9535 0.0000
vt 0.1118 0.9718 0.0000
vt 0.1641 0.9742 0.0000
vt 0.2225 0.9572 0.0000
vt 0.3282 0.8527 0.0000
vt 0.3280 0.9078 0.0000
vt 0.9172 0.8517 0.0000
vt 0.9170 0.9087 0.0000
vt 0.9470 0.8771 0.0000
vt 0.9461 0.8805 0.0000
vt 0.9469 0.8839 0.0000
vt 0.9466 0.8535 0.0000
vt 0.9766 0.8570 0.0000
vt 0.9607 0.8793 0.0000
vt 0.9503 0.8758 0.0000
vt 0.9765 0.9040 0.0000
vt 0.9465 0.9074 0.0000
vt 0.9503 0.8852 0.0000
vt 0.9611 0.8804 0.0000
vt 0.9886 0.8805 0.0000
vt 0.9707 0.8805 0.0000
vt 0.1109 0.7832 0.0000
vt 0.0572 0.8029 0.0000
vt 0.0339 0.8405 0.0000
vt 0.1647 0.7808 0.0000
vt 0.2253 0.7990 0.0000
vt 0.2402 0.8343 0.0000
vt 0.0233 0.8799 0.0000
vt 0.2765 0.8479 0.0000
vt 0.0337 0.9194 0.0000
vt 0.2398 0.9254 0.0000
vt 0.2762 0.9121 0.0000
vt 0.0571 0.9569 0.0000
vt 0.1109 0.9766 0.0000
vt 0.1646 0.9790 0.0000
vt 0.2252 0.9608 0.0000
vt 0.3285 0.8476 0.0000
vt 0.3283 0.9129 0.0000
vt 0.9175 0.8466 0.0000
vt 0.9173 0.9139 0.0000
vt 0.9788 0.8545 0.0000
vt 0.9476 0.8484 0.0000
vt 0.9474 0.9125 0.0000
vt 0.9787 0.9065 0.0000
vt 0.9919 0.8805 0.0000
# 140 texture coords

g BakingSpoon04
usemtl 10___Default
s 1
f 1/1/1 2/2/2 3/3/3 4/4/4 
f 5/5/5 1/1/1 4/4/4 6/6/6 
f 7/7/7 8/8/8 5/5/5 6/6/6 
f 9/9/9 10/10/10 2/2/2 1/1/1 
f 11/11/11 9/9/9 1/1/1 5/5/5 
f 12/12/12 11/11/11 5/5/5 8/8/8 
f 13/13/13 12/12/12 8/8/8 14/14/14 
f 15/15/15 16/16/16 10/10/10 9/9/9 
f 11/11/11 17/17/17 15/15/15 9/9/9 
f 18/18/18 17/17/17 11/11/11 12/12/12 
f 19/19/19 18/18/18 12/12/12 13/13/13 
f 15/15/15 20/20/20 21/21/21 16/16/16 
f 22/22/22 20/20/20 15/15/15 17/17/17 
f 23/23/23 22/22/22 17/17/17 18/18/18 
f 13/13/13 14/14/14 24/24/24 25/25/25 
f 19/19/19 13/13/13 25/25/25 26/26/26 
f 25/25/25 24/24/24 27/27/27 28/28/28 
f 29/29/29 26/26/26 25/25/25 28/28/28 
f 28/28/28 27/27/27 30/30/30 31/31/31 
f 32/32/32 29/29/29 28/28/28 31/31/31 
f 33/33/33 34/34/34 35/35/35 36/36/36 
f 37/37/37 38/38/38 39/39/39 40/40/40 
f 37/37/37 29/29/29 32/32/32 38/38/38 
f 40/40/40 39/39/39 41/41/41 42/42/42 
f 41/41/41 33/33/33 36/36/36 42/42/42 
f 30/30/30 27/27/27 35/35/35 34/34/34 
f 43/43/43 44/44/44 45/45/45 46/46/46 
f 46/46/46 45/45/45 47/47/47 48/48/48 
f 47/47/47 49/49/49 50/50/50 48/48/48 
f 44/44/44 51/51/51 52/52/52 45/45/45 
f 45/45/45 52/52/52 53/53/53 47/47/47 
f 47/47/47 53/53/53 54/54/54 49/49/49 
f 49/49/49 54/54/54 55/55/55 56/56/56 
f 51/51/51 57/57/57 58/58/58 52/52/52 
f 58/58/58 59/59/59 53/53/53 52/52/52 
f 53/53/53 59/59/59 60/60/60 54/54/54 
f 54/54/54 60/60/60 61/61/61 55/55/55 
f 62/62/62 63/63/63 58/58/58 57/57/57 
f 58/58/58 63/63/63 64/64/64 59/59/59 
f 59/59/59 64/64/64 65/65/65 60/60/60 
f 66/66/66 56/56/56 55/55/55 67/67/67 
f 67/67/67 55/55/55 61/61/61 68/68/68 
f 69/69/69 66/66/66 67/67/67 70/70/70 
f 67/67/67 68/68/68 71/71/71 70/70/70 
f 72/72/72 69/69/69 70/70/70 73/73/73 
f 70/70/70 71/71/71 74/74/74 73/73/73 
f 75/75/75 76/76/76 77/77/77 78/78/78 
f 79/79/79 80/80/80 81/81/81 82/82/82 
f 74/74/74 71/71/71 81/81/81 80/80/80 
f 83/83/83 79/79/79 82/82/82 84/84/84 
f 78/78/78 77/77/77 83/83/83 84/84/84 
f 75/75/75 69/69/69 72/72/72 76/76/76 
f 3/3/3 85/85/85 86/86/86 4/4/4 
f 2/2/2 87/87/87 85/85/85 3/3/3 
f 4/4/4 86/86/86 88/88/88 6/6/6 
f 6/6/6 88/88/88 89/89/89 7/7/7 
f 7/7/7 89/89/89 90/90/90 8/8/8 
f 10/10/10 91/91/91 87/87/87 2/2/2 
f 8/8/8 90/90/90 92/92/92 14/14/14 
f 16/16/16 93/93/93 91/91/91 10/10/10 
f 19/19/19 94/94/94 95/95/95 18/18/18 
f 21/21/21 96/96/96 93/93/93 16/16/16 
f 20/20/20 97/97/97 96/96/96 21/21/21 
f 22/22/22 98/98/98 97/97/97 20/20/20 
f 18/18/18 95/95/95 99/99/99 23/23/23 
f 23/23/23 99/99/99 98/98/98 22/22/22 
f 14/14/14 92/92/92 100/100/100 24/24/24 
f 26/26/26 101/101/101 94/94/94 19/19/19 
f 24/24/24 100/100/100 102/102/102 27/27/27 
f 29/29/29 103/103/103 101/101/101 26/26/26 
s 2
f 72/104/104 73/105/105 31/31/105 30/30/106 
f 73/105/105 74/106/107 32/32/108 31/31/105 
s 1
f 35/35/35 104/107/109 105/108/110 36/36/36 
s 2
f 77/109/111 76/110/112 34/34/113 33/33/114 
s 1
f 40/40/40 106/111/115 107/112/116 37/37/37 
s 2
f 80/113/117 79/114/118 39/39/119 38/38/120 
f 74/106/107 80/113/117 38/38/120 32/32/108 
s 1
f 37/37/37 107/112/116 103/103/103 29/29/29 
f 42/42/42 108/115/121 106/111/115 40/40/40 
s 2
f 79/114/118 83/116/122 41/41/122 39/39/119 
s 1
f 36/36/36 105/108/110 108/115/121 42/42/42 
s 2
f 83/116/122 77/109/111 33/33/114 41/41/122 
f 76/110/112 72/104/104 30/30/106 34/34/113 
s 1
f 27/27/27 102/102/102 104/107/109 35/35/35 
f 46/117/46 86/86/86 85/85/85 43/118/43 
f 43/118/43 85/85/85 87/87/87 44/119/44 
f 48/120/48 88/88/88 86/86/86 46/117/46 
f 50/121/50 89/89/89 88/88/88 48/120/48 
f 49/122/49 90/90/90 89/89/89 50/121/50 
f 44/119/44 87/87/87 91/91/91 51/123/51 
f 56/124/56 92/92/92 90/90/90 49/122/49 
f 51/123/51 91/91/91 93/93/93 57/125/57 
f 60/126/60 95/95/95 94/94/94 61/127/61 
f 57/125/57 93/93/93 96/96/96 62/128/62 
f 62/128/62 96/96/96 97/97/97 63/129/63 
f 63/129/63 97/97/97 98/98/98 64/130/64 
f 65/131/65 99/99/99 95/95/95 60/126/60 
f 64/130/64 98/98/98 99/99/99 65/131/65 
f 66/132/66 100/100/100 92/92/92 56/124/56 
f 61/127/61 94/94/94 101/101/101 68/133/68 
f 69/134/69 102/102/102 100/100/100 66/132/66 
f 68/133/68 101/101/101 103/103/103 71/135/71 
f 78/136/78 105/108/110 104/107/109 75/137/75 
f 81/138/81 107/112/116 106/111/115 82/139/82 
f 71/135/71 103/103/103 107/112/116 81/138/81 
f 82/139/82 106/111/115 108/115/121 84/140/84 
f 84/140/84 108/115/121 105/108/110 78/136/78 
f 75/137/75 104/107/109 102/102/102 69/134/69 
# 108 polygons

