# 3ds Max Wavefront OBJ Exporter v0.97b - (c)2007 guruware
# File Created: 16.09.2016 02:00:23

mtllib Glass02.mtl

#
# object Glass02
#

v  -0.0000 -0.1287 -0.0000
v  0.0000 -0.1287 -0.0000
v  -2.9127 -0.1287 2.7293
v  -3.7354 -0.1287 1.4069
v  -3.4195 19.1615 3.2041
v  -4.3854 19.1615 1.6517
v  -3.3297 19.1991 3.1200
v  -4.2702 19.1991 1.6083
v  -2.8667 -0.0000 2.6862
v  -3.6765 -0.0000 1.3847
v  0.0000 0.0000 -0.0000
v  -0.0000 0.0000 -0.0000
v  -1.6465 -0.1287 3.6362
v  -1.9330 19.1615 4.2688
v  -1.8823 19.1991 4.1567
v  -1.6205 -0.0000 3.5787
v  -0.1297 -0.1287 3.9895
v  -0.1523 19.1615 4.6836
v  -0.1483 19.1991 4.5606
v  -0.1277 -0.0000 3.9265
v  1.4069 -0.1287 3.7354
v  1.6517 19.1615 4.3854
v  1.6083 19.1991 4.2702
v  1.3847 0.0000 3.6764
v  2.7293 -0.1287 2.9127
v  3.2041 19.1615 3.4195
v  3.1200 19.1991 3.3297
v  2.6862 -0.0000 2.8667
v  3.6362 -0.1287 1.6465
v  4.2688 19.1615 1.9330
v  4.1567 19.1991 1.8823
v  3.5787 -0.0000 1.6205
v  3.9895 -0.1287 0.1297
v  4.6836 19.1615 0.1523
v  4.5606 19.1991 0.1483
v  3.9265 -0.0000 0.1277
v  3.7354 -0.1287 -1.4069
v  4.3854 19.1615 -1.6517
v  4.2702 19.1991 -1.6083
v  3.6765 -0.0000 -1.3847
v  2.9127 -0.1287 -2.7293
v  3.4195 19.1615 -3.2041
v  3.3297 19.1991 -3.1200
v  2.8667 -0.0000 -2.6862
v  1.6465 -0.1287 -3.6362
v  1.9330 19.1615 -4.2688
v  1.8823 19.1991 -4.1568
v  1.6205 -0.0000 -3.5787
v  0.1297 -0.1287 -3.9895
v  0.1523 19.1615 -4.6836
v  0.1483 19.1991 -4.5607
v  0.1277 -0.0000 -3.9265
v  -1.4069 -0.1287 -3.7354
v  -1.6517 19.1615 -4.3854
v  -1.6083 19.1991 -4.2702
v  -1.3847 -0.0000 -3.6765
v  -2.7293 -0.1287 -2.9127
v  -3.2041 19.1615 -3.4195
v  -3.1200 19.1991 -3.3297
v  -2.6862 -0.0000 -2.8667
v  -3.6362 -0.1287 -1.6465
v  -4.2688 19.1615 -1.9330
v  -4.1568 19.1991 -1.8823
v  -3.5787 -0.0000 -1.6205
v  -3.9895 -0.1287 -0.1297
v  -4.6836 19.1615 -0.1523
v  -4.5607 19.1991 -0.1483
v  -3.9265 -0.0000 -0.1277
# 68 vertices

vn 0.0000 1.0000 0.0000
vn 0.0000 -1.0000 0.0000
vn -0.0000 -1.0000 -0.0000
vn -0.9352 -0.0360 0.3522
vn -0.7292 -0.0360 0.6833
vn -0.2739 0.9562 0.1032
vn -0.2136 0.9562 0.2001
vn 0.9353 0.0330 -0.3523
vn 0.7293 0.0330 -0.6834
vn -0.0000 1.0000 -0.0000
vn -0.0000 1.0000 0.0000
vn -0.4122 -0.0360 0.9104
vn -0.1207 0.9562 0.2666
vn 0.4123 0.0330 -0.9105
vn 0.6425 -0.7271 -0.2420
vn -0.0000 -1.0000 0.0000
vn -0.0325 -0.0360 0.9988
vn -0.0095 0.9562 0.2925
vn 0.0325 0.0330 -0.9989
vn 0.0000 -1.0000 -0.0000
vn 0.3522 -0.0360 0.9352
vn 0.1032 0.9562 0.2739
vn -0.3523 0.0330 -0.9353
vn -0.6617 0.7071 0.2492
vn 0.0000 1.0000 -0.0000
vn 0.6833 -0.0360 0.7292
vn 0.2001 0.9562 0.2136
vn -0.6834 0.0330 -0.7293
vn -0.0001 -1.0000 0.0000
vn 0.9104 -0.0360 0.4122
vn 0.2666 0.9562 0.1207
vn -0.9105 0.0330 -0.4123
vn 0.9988 -0.0360 0.0325
vn 0.2925 0.9562 0.0095
vn -0.9989 0.0330 -0.0325
vn 0.9352 -0.0360 -0.3522
vn 0.2739 0.9562 -0.1032
vn -0.9353 0.0330 0.3523
vn 0.7292 -0.0360 -0.6833
vn 0.2136 0.9562 -0.2001
vn -0.7293 0.0330 0.6834
vn 0.4122 -0.0360 -0.9104
vn 0.1207 0.9562 -0.2666
vn -0.4123 0.0330 0.9105
vn 0.8826 -0.3324 -0.3324
vn 0.0325 -0.0360 -0.9988
vn 0.0095 0.9562 -0.2925
vn -0.0325 0.0330 0.9989
vn -0.3522 -0.0360 -0.9352
vn -0.1032 0.9562 -0.2739
vn 0.3523 0.0330 0.9353
vn 0.0001 1.0000 -0.0000
vn -0.9358 0.0000 0.3525
vn -0.6833 -0.0360 -0.7292
vn -0.2001 0.9562 -0.2136
vn 0.6834 0.0330 0.7293
vn -0.0002 -1.0000 0.0001
vn -0.9104 -0.0360 -0.4122
vn -0.2666 0.9562 -0.1207
vn 0.9105 0.0330 0.4123
vn -0.9988 -0.0360 -0.0325
vn -0.2925 0.9562 -0.0095
vn 0.9989 0.0330 0.0325
# 63 vertex normals

vt 1.0000 0.0000 0.0000
vt 0.9375 0.0000 0.0000
vt 0.9375 0.0857 0.0000
vt 1.0000 0.0857 0.0000
vt 0.9375 0.5003 0.0000
vt 1.0000 0.5003 0.0000
vt 0.9375 0.5031 0.0000
vt 1.0000 0.5031 0.0000
vt 0.9375 0.9156 0.0000
vt 1.0000 0.9156 0.0000
vt 0.9375 1.0000 0.0000
vt 1.0000 1.0000 0.0000
vt 0.8750 0.0000 0.0000
vt 0.8750 0.0857 0.0000
vt 0.8750 0.5003 0.0000
vt 0.8750 0.5031 0.0000
vt 0.8750 0.9156 0.0000
vt 0.8750 1.0000 0.0000
vt 0.8125 0.0000 0.0000
vt 0.8125 0.0857 0.0000
vt 0.8125 0.5003 0.0000
vt 0.8125 0.5031 0.0000
vt 0.8125 0.9156 0.0000
vt 0.8125 1.0000 0.0000
vt 0.7500 0.0000 0.0000
vt 0.7500 0.0857 0.0000
vt 0.7500 0.5003 0.0000
vt 0.7500 0.5031 0.0000
vt 0.7500 0.9156 0.0000
vt 0.7500 1.0000 0.0000
vt 0.6875 0.0000 0.0000
vt 0.6875 0.0857 0.0000
vt 0.6875 0.5003 0.0000
vt 0.6875 0.5031 0.0000
vt 0.6875 0.9156 0.0000
vt 0.6875 1.0000 0.0000
vt 0.6250 0.0000 0.0000
vt 0.6250 0.0857 0.0000
vt 0.6250 0.5003 0.0000
vt 0.6250 0.5031 0.0000
vt 0.6250 0.9156 0.0000
vt 0.6250 1.0000 0.0000
vt 0.5625 0.0000 0.0000
vt 0.5625 0.0857 0.0000
vt 0.5625 0.5003 0.0000
vt 0.5625 0.5031 0.0000
vt 0.5625 0.9156 0.0000
vt 0.5625 1.0000 0.0000
vt 0.5000 0.0000 0.0000
vt 0.5000 0.0857 0.0000
vt 0.5000 0.5003 0.0000
vt 0.5000 0.5031 0.0000
vt 0.5000 0.9156 0.0000
vt 0.5000 1.0000 0.0000
vt 0.4375 0.0000 0.0000
vt 0.4375 0.0857 0.0000
vt 0.4375 0.5003 0.0000
vt 0.4375 0.5031 0.0000
vt 0.4375 0.9156 0.0000
vt 0.4375 1.0000 0.0000
vt 0.3750 0.0000 0.0000
vt 0.3750 0.0857 0.0000
vt 0.3750 0.5003 0.0000
vt 0.3750 0.5031 0.0000
vt 0.3750 0.9156 0.0000
vt 0.3750 1.0000 0.0000
vt 0.3125 -0.0000 0.0000
vt 0.3125 0.0857 0.0000
vt 0.3125 0.5003 0.0000
vt 0.3125 0.5031 0.0000
vt 0.3125 0.9156 0.0000
vt 0.3125 1.0000 0.0000
vt 0.2500 -0.0000 0.0000
vt 0.2500 0.0857 0.0000
vt 0.2500 0.5003 0.0000
vt 0.2500 0.5031 0.0000
vt 0.2500 0.9156 0.0000
vt 0.2500 1.0000 0.0000
vt 0.1875 -0.0000 0.0000
vt 0.1875 0.0857 0.0000
vt 0.1875 0.5003 0.0000
vt 0.1875 0.5031 0.0000
vt 0.1875 0.9156 0.0000
vt 0.1875 1.0000 0.0000
vt 0.1250 -0.0000 0.0000
vt 0.1250 0.0857 0.0000
vt 0.1250 0.5003 0.0000
vt 0.1250 0.5031 0.0000
vt 0.1250 0.9156 0.0000
vt 0.1250 1.0000 0.0000
vt 0.0625 -0.0000 0.0000
vt 0.0625 0.0857 0.0000
vt 0.0625 0.5003 0.0000
vt 0.0625 0.5031 0.0000
vt 0.0625 0.9156 0.0000
vt 0.0625 1.0000 0.0000
vt 0.0000 -0.0000 0.0000
vt 0.0000 0.0857 0.0000
vt 0.0000 0.5003 0.0000
vt 0.0000 0.5031 0.0000
vt 0.0000 0.9156 0.0000
vt 0.0000 1.0000 0.0000
# 102 texture coords

g Glass02
usemtl wire_145028177
s 1
f 1/1/1 2/2/1 3/3/2 4/4/3 
s 4
f 4/4/4 3/3/5 5/5/5 6/6/4 
s 2
f 6/6/6 5/5/7 7/7/7 8/8/6 
s 4
f 8/8/8 7/7/9 9/9/9 10/10/8 
s 2
f 10/10/10 9/9/11 11/11/3 12/12/2 
s 1
f 2/2/1 2/13/2 13/14/2 3/3/2 
s 4
f 3/3/5 13/14/12 14/15/12 5/5/5 
s 2
f 5/5/7 14/15/13 15/16/13 7/7/7 
s 4
f 7/7/9 15/16/14 16/17/14 9/9/9 
s 2
f 9/9/11 16/17/1 11/18/1 11/11/3 
s 1
f 2/13/2 2/19/15 17/20/16 13/14/2 
s 4
f 13/14/12 17/20/17 18/21/17 14/15/12 
s 2
f 14/15/13 18/21/18 19/22/18 15/16/13 
s 4
f 15/16/14 19/22/19 20/23/19 16/17/14 
s 2
f 16/17/1 20/23/11 11/24/3 11/18/1 
s 1
f 2/19/15 1/25/20 21/26/2 17/20/16 
s 4
f 17/20/17 21/26/21 22/27/21 18/21/17 
s 2
f 18/21/18 22/27/22 23/28/22 19/22/18 
s 4
f 19/22/19 23/28/23 24/29/23 20/23/19 
s 2
f 20/23/11 24/29/11 12/30/24 11/24/3 
s 1
f 1/25/20 1/31/25 25/32/2 21/26/2 
s 4
f 21/26/21 25/32/26 26/33/26 22/27/21 
s 2
f 22/27/22 26/33/27 27/34/27 23/28/22 
s 4
f 23/28/23 27/34/28 28/35/28 24/29/23 
s 2
f 24/29/11 28/35/1 12/36/29 12/30/24 
s 1
f 1/31/25 1/37/3 29/38/2 25/32/2 
s 4
f 25/32/26 29/38/30 30/39/30 26/33/26 
s 2
f 26/33/27 30/39/31 31/40/31 27/34/27 
s 4
f 27/34/28 31/40/32 32/41/32 28/35/28 
s 2
f 28/35/1 32/41/1 12/42/1 12/36/29 
s 1
f 1/37/3 1/43/3 33/44/16 29/38/2 
s 4
f 29/38/30 33/44/33 34/45/33 30/39/30 
s 2
f 30/39/31 34/45/34 35/46/34 31/40/31 
s 4
f 31/40/32 35/46/35 36/47/35 32/41/32 
s 2
f 32/41/1 36/47/25 12/48/3 12/42/1 
s 1
f 1/43/3 1/49/1 37/50/3 33/44/16 
s 4
f 33/44/33 37/50/36 38/51/36 34/45/33 
s 2
f 34/45/34 38/51/37 39/52/37 35/46/34 
s 4
f 35/46/35 39/52/38 40/53/38 36/47/35 
s 2
f 36/47/25 40/53/25 12/54/3 12/48/3 
s 1
f 1/49/1 1/55/2 41/56/2 37/50/3 
s 4
f 37/50/36 41/56/39 42/57/39 38/51/36 
s 2
f 38/51/37 42/57/40 43/58/40 39/52/37 
s 4
f 39/52/38 43/58/41 44/59/41 40/53/38 
s 2
f 40/53/25 44/59/25 12/60/3 12/54/3 
s 1
f 1/55/2 1/61/2 45/62/2 41/56/2 
s 4
f 41/56/39 45/62/42 46/63/42 42/57/39 
s 2
f 42/57/40 46/63/43 47/64/43 43/58/40 
s 4
f 43/58/41 47/64/44 48/65/44 44/59/41 
s 2
f 44/59/25 48/65/25 12/66/10 12/60/3 
s 1
f 1/61/2 1/67/45 49/68/16 45/62/2 
s 4
f 45/62/42 49/68/46 50/69/46 46/63/42 
s 2
f 46/63/43 50/69/47 51/70/47 47/64/43 
s 4
f 47/64/44 51/70/48 52/71/48 48/65/44 
s 2
f 48/65/25 52/71/10 12/72/16 12/66/10 
s 1
f 1/67/45 1/73/20 53/74/2 49/68/16 
s 4
f 49/68/46 53/74/49 54/75/49 50/69/46 
s 2
f 50/69/47 54/75/50 55/76/50 51/70/47 
s 4
f 51/70/48 55/76/51 56/77/51 52/71/48 
s 2
f 52/71/10 56/77/52 12/78/53 12/72/16 
s 1
f 1/73/20 1/79/25 57/80/2 53/74/2 
s 4
f 53/74/49 57/80/54 58/81/54 54/75/49 
s 2
f 54/75/50 58/81/55 59/82/55 55/76/50 
s 4
f 55/76/51 59/82/56 60/83/56 56/77/51 
s 2
f 56/77/52 60/83/25 12/84/57 12/78/53 
s 1
f 1/79/25 1/85/3 61/86/2 57/80/2 
s 4
f 57/80/54 61/86/58 62/87/58 58/81/54 
s 2
f 58/81/55 62/87/59 63/88/59 59/82/55 
s 4
f 59/82/56 63/88/60 64/89/60 60/83/56 
s 2
f 60/83/25 64/89/11 12/90/11 12/84/57 
s 1
f 1/85/3 1/91/3 65/92/16 61/86/2 
s 4
f 61/86/58 65/92/61 66/93/61 62/87/58 
s 2
f 62/87/59 66/93/62 67/94/62 63/88/59 
s 4
f 63/88/60 67/94/63 68/95/63 64/89/60 
s 2
f 64/89/11 68/95/10 12/96/11 12/90/11 
s 1
f 1/91/3 1/97/1 4/98/3 65/92/16 
s 4
f 65/92/61 4/98/4 6/99/4 66/93/61 
s 2
f 66/93/62 6/99/6 8/100/6 67/94/62 
s 4
f 67/94/63 8/100/8 10/101/8 68/95/63 
s 2
f 68/95/10 10/101/10 12/102/2 12/96/11 
# 80 polygons

