# 3ds Max Wavefront OBJ Exporter v0.97b - (c)2007 guruware
# File Created: 14.09.2016 12:09:45

mtllib Knife.mtl

#
# object KnifeHandle
#

v  -7.4928 0.4870 0.6953
v  -3.6478 0.4870 -0.5550
v  -3.9632 0.4870 -2.0328
v  -8.5369 0.4870 -1.7199
v  5.7332 0.4870 0.7478
v  5.7201 0.4870 -0.6656
v  1.1783 0.4870 -0.4167
v  1.3222 0.4870 1.3473
v  -3.4075 0.4870 0.9131
v  8.0742 0.4870 1.7393
v  9.5060 0.4870 0.8321
v  -6.1207 0.4870 2.9874
v  5.7059 0.4870 -2.0881
v  1.0293 0.4870 -2.1824
v  9.3958 0.4870 -1.1054
v  -8.9839 0.0000 -1.9922
v  -7.7623 0.0000 0.8335
v  -6.2061 0.0000 3.4331
v  -3.3176 0.0000 1.2248
v  1.3289 0.0000 1.6514
v  5.6917 0.0000 1.0584
v  8.1022 0.0000 2.0794
v  9.8179 0.0000 0.9923
v  9.6851 0.0000 -1.3411
v  5.7484 0.0000 -2.3896
v  1.0278 0.0000 -2.4847
v  -3.9781 0.0000 -2.3347
v  -7.4928 -0.4870 0.6953
v  -8.5369 -0.4870 -1.7199
v  -3.9632 -0.4870 -2.0328
v  -3.6478 -0.4870 -0.5550
v  5.7332 -0.4870 0.7478
v  1.3222 -0.4870 1.3473
v  1.1783 -0.4870 -0.4167
v  5.7201 -0.4870 -0.6656
v  -3.4075 -0.4870 0.9131
v  9.5060 -0.4870 0.8321
v  8.0742 -0.4870 1.7393
v  -6.1207 -0.4870 2.9874
v  5.7059 -0.4870 -2.0881
v  1.0293 -0.4870 -2.1824
v  9.3958 -0.4870 -1.1054
# 42 vertices

vn -0.4458 0.8655 0.2285
vn 0.0000 1.0000 -0.0000
vn -0.0241 0.8714 -0.4900
vn -0.4441 0.8541 -0.2706
vn -0.0545 0.9115 0.4077
vn 0.0111 0.8597 0.5106
vn 0.1042 0.9264 0.3617
vn 0.0458 0.8297 0.5564
vn 0.4984 0.8283 0.2561
vn -0.1023 0.8393 0.5339
vn 0.0716 0.8589 -0.5070
vn -0.0024 0.8706 -0.4920
vn 0.4350 0.8277 -0.3545
vn -0.8540 0.0000 -0.5203
vn -0.8899 -0.0000 0.4562
vn -0.1882 -0.0000 0.9821
vn 0.2769 0.0000 0.9609
vn 0.0218 -0.0000 0.9998
vn -0.1324 0.0000 0.9912
vn 0.0820 0.0000 0.9966
vn 0.8895 -0.0000 0.4570
vn 0.7753 -0.0000 -0.6317
vn 0.1398 0.0000 -0.9902
vn -0.0049 -0.0000 -1.0000
vn -0.0491 -0.0000 -0.9988
vn -0.4458 -0.8655 0.2285
vn -0.4441 -0.8541 -0.2706
vn -0.0241 -0.8714 -0.4900
vn 0.0000 -1.0000 -0.0000
vn -0.0545 -0.9115 0.4077
vn 0.0111 -0.8597 0.5106
vn 0.1042 -0.9264 0.3617
vn 0.4984 -0.8283 0.2561
vn 0.0458 -0.8297 0.5564
vn -0.1023 -0.8393 0.5339
vn 0.0716 -0.8589 -0.5070
vn -0.0024 -0.8706 -0.4920
vn 0.4350 -0.8277 -0.3545
# 38 vertex normals

vt 0.0777 0.8398 0.0000
vt 0.2813 0.8763 0.0000
vt 0.2756 0.9531 0.0000
vt 0.0416 0.9690 0.0000
vt 0.7477 0.7453 0.0000
vt 0.7569 0.8168 0.0000
vt 0.5249 0.8358 0.0000
vt 0.5199 0.7457 0.0000
vt 0.2832 0.8005 0.0000
vt 0.8594 0.6790 0.0000
vt 0.9383 0.7149 0.0000
vt 0.1313 0.7146 0.0000
vt 0.7661 0.8888 0.0000
vt 0.5297 0.9260 0.0000
vt 0.9462 0.8135 0.0000
vt 0.0208 0.9838 0.0000
vt 0.0631 0.8326 0.0000
vt 0.1238 0.6905 0.0000
vt 0.2856 0.7820 0.0000
vt 0.5182 0.7282 0.0000
vt 0.7434 0.7278 0.0000
vt 0.8585 0.6595 0.0000
vt 0.9530 0.7025 0.0000
vt 0.9625 0.8213 0.0000
vt 0.7703 0.9015 0.0000
vt 0.5317 0.9391 0.0000
vt 0.2770 0.9663 0.0000
vt 0.0701 0.4681 0.0000
vt 0.0340 0.3389 0.0000
vt 0.2680 0.3548 0.0000
vt 0.2737 0.4316 0.0000
vt 0.7401 0.5625 0.0000
vt 0.5124 0.5622 0.0000
vt 0.5174 0.4721 0.0000
vt 0.7493 0.4911 0.0000
vt 0.2757 0.5074 0.0000
vt 0.9308 0.5930 0.0000
vt 0.8519 0.6289 0.0000
vt 0.1237 0.5933 0.0000
vt 0.7585 0.4191 0.0000
vt 0.5221 0.3819 0.0000
vt 0.9387 0.4944 0.0000
vt 0.0133 0.3241 0.0000
vt 0.0555 0.4753 0.0000
vt 0.1163 0.6174 0.0000
vt 0.2781 0.5259 0.0000
vt 0.5106 0.5797 0.0000
vt 0.7359 0.5801 0.0000
vt 0.8509 0.6484 0.0000
vt 0.9455 0.6054 0.0000
vt 0.9550 0.4866 0.0000
vt 0.7628 0.4064 0.0000
vt 0.5242 0.3688 0.0000
vt 0.2694 0.3416 0.0000
# 54 texture coords

g KnifeHandle
usemtl 03___Default
s 1
f 1/1/1 2/2/2 3/3/3 4/4/4 
f 5/5/5 6/6/2 7/7/2 8/8/6 
f 9/9/7 8/8/6 7/7/2 2/2/2 
f 5/5/5 10/10/8 11/11/9 6/6/2 
f 1/1/1 12/12/10 9/9/7 2/2/2 
f 13/13/11 14/14/12 7/7/2 6/6/2 
f 14/14/12 3/3/3 2/2/2 7/7/2 
f 15/15/13 13/13/11 6/6/2 11/11/9 
f 16/16/14 17/17/15 1/1/1 4/4/4 
f 17/17/15 18/18/16 12/12/10 1/1/1 
f 18/18/16 19/19/17 9/9/7 12/12/10 
f 19/19/17 20/20/18 8/8/6 9/9/7 
f 20/20/18 21/21/19 5/5/5 8/8/6 
f 21/21/19 22/22/20 10/10/8 5/5/5 
f 22/22/20 23/23/21 11/11/9 10/10/8 
f 23/23/21 24/24/22 15/15/13 11/11/9 
f 24/24/22 25/25/23 13/13/11 15/15/13 
f 25/25/23 26/26/24 14/14/12 13/13/11 
f 26/26/24 27/27/25 3/3/3 14/14/12 
f 27/27/25 16/16/14 4/4/4 3/3/3 
f 28/28/26 29/29/27 30/30/28 31/31/29 
f 32/32/30 33/33/31 34/34/29 35/35/29 
f 36/36/32 31/31/29 34/34/29 33/33/31 
f 32/32/30 35/35/29 37/37/33 38/38/34 
f 28/28/26 31/31/29 36/36/32 39/39/35 
f 40/40/36 35/35/29 34/34/29 41/41/37 
f 41/41/37 34/34/29 31/31/29 30/30/28 
f 42/42/38 37/37/33 35/35/29 40/40/36 
f 16/43/14 29/29/27 28/28/26 17/44/15 
f 17/44/15 28/28/26 39/39/35 18/45/16 
f 18/45/16 39/39/35 36/36/32 19/46/17 
f 19/46/17 36/36/32 33/33/31 20/47/18 
f 20/47/18 33/33/31 32/32/30 21/48/19 
f 21/48/19 32/32/30 38/38/34 22/49/20 
f 22/49/20 38/38/34 37/37/33 23/50/21 
f 23/50/21 37/37/33 42/42/38 24/51/22 
f 24/51/22 42/42/38 40/40/36 25/52/23 
f 25/52/23 40/40/36 41/41/37 26/53/24 
f 26/53/24 41/41/37 30/30/28 27/54/25 
f 27/54/25 30/30/28 29/29/27 16/43/14 
# 40 polygons

#
# object KnifeBlade
#

v  -22.1343 0.0000 -1.3844
v  -24.7086 0.0000 -0.8304
v  -21.9916 0.1215 0.0014
v  -20.0426 0.0000 -1.4376
v  -6.2839 0.0000 2.8929
v  -7.3834 0.1215 0.6478
v  -19.2466 0.1215 0.3543
v  -20.5424 0.0000 2.1994
v  -23.9406 0.0000 1.4404
v  -26.9176 0.0000 0.4250
v  -8.4830 0.0000 -1.5974
v  -17.9509 0.0000 -1.4909
v  -21.9916 -0.1215 0.0014
v  -19.2466 -0.1215 0.3543
v  -7.3834 -0.1215 0.6478
# 15 vertices

vn -0.0102 0.9962 -0.0863
vn -0.0271 0.9980 -0.0573
vn -0.0107 0.9999 -0.0132
vn 0.0029 0.9973 -0.0729
vn -0.0016 0.9984 0.0559
vn -0.0010 0.9999 0.0165
vn -0.0009 1.0000 -0.0008
vn -0.0079 0.9980 0.0626
vn -0.0182 0.9981 0.0597
vn -0.0245 0.9997 0.0022
vn -0.0006 0.9986 -0.0538
vn 0.0005 0.9979 -0.0646
vn -0.0102 -0.9962 -0.0863
vn 0.0029 -0.9973 -0.0729
vn -0.0107 -0.9999 -0.0132
vn -0.0271 -0.9980 -0.0573
vn -0.0016 -0.9984 0.0559
vn -0.0079 -0.9980 0.0626
vn -0.0009 -1.0000 -0.0008
vn -0.0010 -0.9999 0.0165
vn -0.0182 -0.9981 0.0597
vn -0.0245 -0.9997 0.0022
vn 0.0005 -0.9979 -0.0646
vn -0.0006 -0.9986 -0.0538
# 24 vertex normals

vt 0.2358 0.2803 0.0000
vt 0.1220 0.2497 0.0000
vt 0.2421 0.2038 0.0000
vt 0.3282 0.2833 0.0000
vt 0.9363 0.0443 0.0000
vt 0.8877 0.1682 0.0000
vt 0.3634 0.1844 0.0000
vt 0.3062 0.0825 0.0000
vt 0.1560 0.1244 0.0000
vt 0.0244 0.1805 0.0000
vt 0.8391 0.2921 0.0000
vt 0.4207 0.2862 0.0000
# 12 texture coords

g KnifeBlade
usemtl wire_228214153
s 1
f 43/55/39 44/56/40 45/57/41 46/58/42 
f 47/59/43 48/60/44 49/61/45 50/62/46 
f 50/62/46 49/61/45 45/57/41 51/63/47 
f 52/64/48 51/63/47 45/57/41 44/56/40 
f 48/60/44 53/65/49 54/66/50 49/61/45 
f 49/61/45 54/66/50 46/58/42 45/57/41 
s 2
f 43/55/51 46/58/52 55/57/53 44/56/54 
f 47/59/55 50/62/56 56/61/57 57/60/58 
f 50/62/56 51/63/59 55/57/53 56/61/57 
f 55/57/53 51/63/59 52/64/60 44/56/54 
f 57/60/58 56/61/57 54/66/61 53/65/62 
f 56/61/57 55/57/53 46/58/52 54/66/61 
# 12 polygons

