# 3ds Max Wavefront OBJ Exporter v0.97b - (c)2007 guruware
# File Created: 14.09.2016 12:06:39

mtllib WoodPlat.mtl

#
# object WoodPlat
#

v  4.4404 0.0000 14.2428
v  3.4413 0.0000 28.9247
v  -3.4413 0.0000 28.9247
v  -4.4404 0.0000 14.2428
v  3.4413 3.1971 28.9247
v  4.4404 3.1971 14.2428
v  -4.4404 3.1971 14.2428
v  -3.4413 3.1971 28.9247
v  3.8185 0.4037 29.3284
v  3.8185 2.7934 29.3284
v  -3.8185 2.7934 29.3284
v  -3.8185 0.4037 29.3284
v  -4.8441 0.4037 -24.2206
v  -4.8441 2.7934 -24.2206
v  4.8441 2.7934 -24.2206
v  4.8441 0.4037 -24.2206
v  -14.5324 0.4037 12.2179
v  -14.5324 2.7934 12.2179
v  -14.5324 2.7934 -22.0896
v  -14.5324 0.4037 -22.0896
v  -4.8441 0.0000 -23.8170
v  -4.6423 0.0000 14.0410
v  -4.8441 0.0000 13.8391
v  4.6423 3.1971 14.0410
v  4.8441 3.1971 13.8391
v  4.8441 3.1971 -23.8170
v  14.5324 0.4037 -22.0896
v  14.5324 2.7934 -22.0896
v  14.5324 2.7934 12.2179
v  14.5324 0.4037 12.2179
v  -14.1350 0.4037 -22.5642
v  -14.1350 2.7934 -22.5642
v  14.1350 2.7934 -22.5642
v  14.1350 0.4037 -22.5642
v  14.1287 0.0000 -22.1552
v  14.1287 0.0000 12.2798
v  4.8441 0.0000 13.8391
v  4.8441 0.0000 -23.8170
v  -14.1287 0.0000 12.2798
v  -14.1287 0.0000 -22.1552
v  -14.1287 3.1971 -22.1552
v  -14.1287 3.1971 12.2798
v  -4.8441 3.1971 13.8391
v  -4.8441 3.1971 -23.8170
v  14.1287 3.1971 12.2798
v  14.1287 3.1971 -22.1552
v  14.1342 0.4037 12.6882
v  14.1342 2.7934 12.6882
v  4.8441 2.7934 14.2428
v  4.8441 0.4037 14.2428
v  -4.8441 0.4037 14.2428
v  -4.8441 2.7934 14.2428
v  -14.1342 2.7934 12.6882
v  -14.1342 0.4037 12.6882
v  -14.4160 0.4037 -22.3958
v  -14.3760 0.1576 -22.3623
v  -14.4141 0.1182 -22.1089
v  -14.4141 0.1182 12.2360
v  -14.3758 0.1576 12.4890
v  -14.4158 0.4037 12.5228
v  -14.4158 2.7934 12.5228
v  -14.3758 3.0395 12.4890
v  -14.4141 3.0789 12.2360
v  -14.4141 3.0789 -22.1089
v  -14.3760 3.0395 -22.3623
v  -14.4160 2.7934 -22.3958
v  14.4158 0.4037 12.5228
v  14.3758 0.1576 12.4890
v  14.4141 0.1182 12.2360
v  14.4141 0.1182 -22.1089
v  14.3760 0.1576 -22.3623
v  14.4160 0.4037 -22.3958
v  14.4160 2.7934 -22.3958
v  14.3760 3.0395 -22.3623
v  14.4141 3.0789 -22.1089
v  14.4141 3.0789 12.2360
v  14.3758 3.0395 12.4890
v  14.4158 2.7934 12.5228
v  -14.1331 0.1182 -22.4444
v  -14.1331 3.0789 -22.4444
v  14.1331 3.0789 -22.4444
v  14.1331 0.1182 -22.4444
v  14.1326 0.1182 12.5686
v  -14.1326 0.1182 12.5686
v  -14.1326 3.0789 12.5686
v  14.1326 3.0789 12.5686
v  4.7145 0.1182 14.4096
v  3.7448 0.1576 29.2496
v  -3.7448 0.1576 29.2496
v  -4.7145 0.1182 14.4096
v  -3.7448 3.0395 29.2496
v  3.7448 3.0395 29.2496
v  4.7145 3.0789 14.4096
v  -4.7145 3.0789 14.4096
v  4.8441 0.1182 -24.1024
v  -4.8441 0.1182 -24.1024
v  -4.8441 3.0789 -24.1024
v  4.8441 3.0789 -24.1024
v  5.0090 0.1182 14.0970
v  -5.0090 0.1182 14.0970
v  -5.0090 3.0789 14.0970
v  5.0090 3.0789 14.0970
v  -4.7653 0.0788 14.1640
v  4.7653 3.1183 14.1640
v  4.6423 0.0000 14.0410
v  4.7653 0.0788 14.1640
v  -4.6423 3.1971 14.0410
v  -4.7653 3.1183 14.1640
# 108 vertices

vn 0.1309 -0.9897 0.0578
vn 0.1669 -0.9695 0.1796
vn -0.1675 -0.9694 0.1793
vn -0.1310 -0.9897 0.0581
vn 0.1675 0.9694 0.1793
vn 0.1310 0.9897 0.0581
vn -0.1309 0.9897 0.0578
vn -0.1669 0.9695 0.1796
vn 0.0000 -0.1394 0.9902
vn 0.0000 0.1394 0.9902
vn -0.0856 -0.1924 -0.9776
vn -0.0856 0.1924 -0.9776
vn 0.0856 0.1924 -0.9776
vn 0.0856 -0.1924 -0.9776
vn -0.9729 -0.1700 0.1569
vn -0.9729 0.1700 0.1569
vn -0.9730 0.1700 -0.1560
vn -0.9730 -0.1700 -0.1560
vn -0.0192 -0.9785 -0.2055
vn -0.1493 -0.9775 0.1493
vn -0.0688 -0.9882 0.1368
vn 0.1493 0.9775 0.1493
vn 0.0688 0.9882 0.1368
vn 0.0192 0.9785 -0.2055
vn 0.9730 -0.1700 -0.1560
vn 0.9730 0.1700 -0.1560
vn 0.9729 0.1700 0.1569
vn 0.9729 -0.1700 0.1569
vn -0.3244 -0.1700 -0.9305
vn -0.3243 0.1700 -0.9305
vn 0.3244 0.1700 -0.9305
vn 0.3243 -0.1700 -0.9305
vn 0.1949 -0.9671 -0.1632
vn 0.1936 -0.9673 0.1638
vn 0.0688 -0.9882 0.1368
vn 0.0193 -0.9785 -0.2055
vn -0.1936 -0.9673 0.1639
vn -0.1949 -0.9671 -0.1632
vn -0.1949 0.9671 -0.1632
vn -0.1936 0.9673 0.1638
vn -0.0688 0.9882 0.1368
vn -0.0193 0.9785 -0.2055
vn 0.1936 0.9673 0.1639
vn 0.1949 0.9671 -0.1632
vn 0.3154 -0.1700 0.9336
vn 0.3154 0.1700 0.9336
vn 0.7211 0.2272 0.6545
vn 0.7213 -0.2272 0.6544
vn 0.9880 0.1398 0.0664
vn 0.9880 -0.1394 0.0672
vn -0.7211 -0.2272 0.6545
vn -0.7213 0.2272 0.6544
vn -0.3154 0.1700 0.9336
vn -0.3154 -0.1700 0.9336
vn -0.9880 -0.1398 0.0664
vn -0.9880 0.1394 0.0672
vn -0.7626 -0.1022 -0.6387
vn -0.6318 -0.5665 -0.5291
vn -0.7097 -0.6972 -0.1008
vn -0.7094 -0.6975 0.1014
vn -0.6287 -0.5670 0.5322
vn -0.7592 -0.1024 0.6427
vn -0.7592 0.1024 0.6427
vn -0.6287 0.5670 0.5322
vn -0.7094 0.6975 0.1014
vn -0.7097 0.6972 -0.1008
vn -0.6318 0.5665 -0.5291
vn -0.7626 0.1022 -0.6387
vn 0.7592 -0.1024 0.6427
vn 0.6287 -0.5670 0.5322
vn 0.7094 -0.6975 0.1014
vn 0.7097 -0.6972 -0.1008
vn 0.6318 -0.5665 -0.5291
vn 0.7626 -0.1022 -0.6387
vn 0.7626 0.1022 -0.6387
vn 0.6318 0.5665 -0.5291
vn 0.7097 0.6972 -0.1008
vn 0.7094 0.6975 0.1014
vn 0.6287 0.5670 0.5322
vn 0.7592 0.1024 0.6427
vn -0.2240 -0.6972 -0.6810
vn -0.2239 0.6972 -0.6810
vn 0.2240 0.6972 -0.6810
vn 0.2239 -0.6972 -0.6810
vn 0.2172 -0.6975 0.6829
vn -0.2171 -0.6975 0.6829
vn -0.2172 0.6975 0.6829
vn 0.2171 0.6975 0.6829
vn 0.7010 -0.7029 0.1203
vn 0.5171 -0.6527 0.5537
vn -0.5177 -0.6527 0.5531
vn -0.7010 -0.7028 0.1213
vn -0.5171 0.6527 0.5537
vn 0.5177 0.6527 0.5531
vn 0.7010 0.7028 0.1213
vn -0.7010 0.7029 0.1203
vn 0.0636 -0.6956 -0.7156
vn -0.0635 -0.6956 -0.7156
vn -0.0636 0.6956 -0.7156
vn 0.0635 0.6956 -0.7156
vn 0.1825 -0.6972 0.6933
vn -0.1826 -0.6972 0.6933
vn -0.1825 0.6972 0.6933
vn 0.1826 0.6972 0.6933
vn -0.4501 -0.7818 0.4316
vn 0.4501 0.7818 0.4316
vn 0.1493 -0.9775 0.1493
vn 0.4501 -0.7818 0.4316
vn -0.1493 0.9775 0.1493
vn -0.4501 0.7818 0.4316
# 110 vertex normals

vt 0.8210 0.6485 0.0000
vt 0.8056 0.8736 0.0000
vt 0.7001 0.8736 0.0000
vt 0.6848 0.6485 0.0000
vt 0.3075 0.0643 0.0000
vt 0.3304 0.2887 0.0000
vt 0.1942 0.2887 0.0000
vt 0.2163 0.0643 0.0000
vt 0.3307 0.0338 0.0000
vt 0.3155 0.0546 0.0000
vt 0.2090 0.0546 0.0000
vt 0.1938 0.0338 0.0000
vt 0.1829 0.9226 0.0000
vt 0.1885 0.8869 0.0000
vt 0.3361 0.8869 0.0000
vt 0.3416 0.9226 0.0000
vt 0.0158 0.3162 0.0000
vt 0.0402 0.3317 0.0000
vt 0.0452 0.8456 0.0000
vt 0.0242 0.8640 0.0000
vt 0.6786 0.0649 0.0000
vt 0.6817 0.6454 0.0000
vt 0.6786 0.6423 0.0000
vt 0.3335 0.2918 0.0000
vt 0.3366 0.2949 0.0000
vt 0.3352 0.8746 0.0000
vt 0.5001 0.8667 0.0000
vt 0.4790 0.8483 0.0000
vt 0.4841 0.3344 0.0000
vt 0.5085 0.3189 0.0000
vt 0.0292 0.8706 0.0000
vt 0.0513 0.8555 0.0000
vt 0.4715 0.8577 0.0000
vt 0.4936 0.8728 0.0000
vt 0.9695 0.0904 0.0000
vt 0.9695 0.6184 0.0000
vt 0.8271 0.6423 0.0000
vt 0.8271 0.0649 0.0000
vt 0.5362 0.6184 0.0000
vt 0.5362 0.0904 0.0000
vt 0.0550 0.8462 0.0000
vt 0.0502 0.3324 0.0000
vt 0.1880 0.2949 0.0000
vt 0.1894 0.8746 0.0000
vt 0.4744 0.3328 0.0000
vt 0.4696 0.8467 0.0000
vt 0.5028 0.3103 0.0000
vt 0.4787 0.3230 0.0000
vt 0.3409 0.2850 0.0000
vt 0.3667 0.2629 0.0000
vt 0.1579 0.2629 0.0000
vt 0.1836 0.2850 0.0000
vt 0.0460 0.3240 0.0000
vt 0.0220 0.3113 0.0000
vt 0.0243 0.8705 0.0000
vt 0.0207 0.8732 0.0000
vt 0.0206 0.8667 0.0000
vt 0.0120 0.3167 0.0000
vt 0.0119 0.3102 0.0000
vt 0.0160 0.3124 0.0000
vt 0.0401 0.3256 0.0000
vt 0.0442 0.3279 0.0000
vt 0.0443 0.3339 0.0000
vt 0.0491 0.8456 0.0000
vt 0.0492 0.8516 0.0000
vt 0.0456 0.8543 0.0000
vt 0.5086 0.3124 0.0000
vt 0.5127 0.3102 0.0000
vt 0.5126 0.3167 0.0000
vt 0.5039 0.8667 0.0000
vt 0.5038 0.8732 0.0000
vt 0.5002 0.8705 0.0000
vt 0.4790 0.8543 0.0000
vt 0.4754 0.8516 0.0000
vt 0.4755 0.8456 0.0000
vt 0.4803 0.3339 0.0000
vt 0.4803 0.3279 0.0000
vt 0.4844 0.3256 0.0000
vt 0.0273 0.8755 0.0000
vt 0.0549 0.8528 0.0000
vt 0.4696 0.8528 0.0000
vt 0.4972 0.8755 0.0000
vt 0.9696 0.0841 0.0000
vt 0.9757 0.0852 0.0000
vt 0.9757 0.0914 0.0000
vt 0.9757 0.6174 0.0000
vt 0.9757 0.6236 0.0000
vt 0.9696 0.6247 0.0000
vt 0.5362 0.6247 0.0000
vt 0.5300 0.6236 0.0000
vt 0.5300 0.6174 0.0000
vt 0.5300 0.0914 0.0000
vt 0.5300 0.0852 0.0000
vt 0.5361 0.0841 0.0000
vt 0.0501 0.3263 0.0000
vt 0.4744 0.3263 0.0000
vt 0.5068 0.3081 0.0000
vt 0.0177 0.3081 0.0000
vt 0.8267 0.6547 0.0000
vt 0.8114 0.8798 0.0000
vt 0.6943 0.8798 0.0000
vt 0.6790 0.6547 0.0000
vt 0.2116 0.0582 0.0000
vt 0.3130 0.0582 0.0000
vt 0.3359 0.2825 0.0000
vt 0.1886 0.2825 0.0000
vt 0.1913 0.0303 0.0000
vt 0.3333 0.0303 0.0000
vt 0.3425 0.9286 0.0000
vt 0.1820 0.9286 0.0000
vt 0.1894 0.8808 0.0000
vt 0.3352 0.8808 0.0000
vt 0.6786 0.0587 0.0000
vt 0.8271 0.0587 0.0000
vt 0.8332 0.6475 0.0000
vt 0.6725 0.6475 0.0000
vt 0.1821 0.2903 0.0000
vt 0.3425 0.2903 0.0000
vt 0.3768 0.2613 0.0000
vt 0.3700 0.2531 0.0000
vt 0.1477 0.2613 0.0000
vt 0.1545 0.2531 0.0000
vt 0.6786 0.6485 0.0000
vt 0.3366 0.2887 0.0000
vt 0.8240 0.6454 0.0000
vt 0.8271 0.6485 0.0000
vt 0.1911 0.2918 0.0000
vt 0.1880 0.2887 0.0000
vt 0.3710 0.2592 0.0000
vt 0.1535 0.2592 0.0000
# 130 texture coords

g WoodPlat
usemtl 02___Default
s 1
f 1/1/1 2/2/2 3/3/3 4/4/4 
f 5/5/5 6/6/6 7/7/7 8/8/8 
f 9/9/9 10/10/10 11/11/10 12/12/9 
f 13/13/11 14/14/12 15/15/13 16/16/14 
f 17/17/15 18/18/16 19/19/17 20/20/18 
f 21/21/19 4/4/4 22/22/20 23/23/21 
f 24/24/22 25/25/23 26/26/24 6/6/6 
f 27/27/25 28/28/26 29/29/27 30/30/28 
f 31/31/29 32/32/30 14/14/12 13/13/11 
f 33/33/31 34/34/32 16/16/14 15/15/13 
f 35/35/33 36/36/34 37/37/35 38/38/36 
f 39/39/37 40/40/38 21/21/19 23/23/21 
f 41/41/39 42/42/40 43/43/41 44/44/42 
f 45/45/43 46/46/44 26/26/24 25/25/23 
f 47/47/45 48/48/46 49/49/47 50/50/48 
f 50/50/48 49/49/47 10/10/49 9/9/50 
f 51/51/51 52/52/52 53/53/53 54/54/54 
f 12/12/55 11/11/56 52/52/52 51/51/51 
f 20/20/18 55/55/57 56/56/58 57/57/59 
f 17/17/15 58/58/60 59/59/61 60/60/62 
f 18/18/16 61/61/63 62/62/64 63/63/65 
f 19/19/17 64/64/66 65/65/67 66/66/68 
f 30/30/28 67/67/69 68/68/70 69/69/71 
f 27/27/25 70/70/72 71/71/73 72/72/74 
f 28/28/26 73/73/75 74/74/76 75/75/77 
f 29/29/27 76/76/78 77/77/79 78/78/80 
f 31/31/29 79/79/81 56/56/58 55/55/57 
f 32/32/30 66/66/68 65/65/67 80/80/82 
f 33/33/31 81/81/83 74/74/76 73/73/75 
f 34/34/32 72/72/74 71/71/73 82/82/84 
f 35/35/33 82/83/84 71/84/73 70/85/72 
f 36/36/34 69/86/71 68/87/70 83/88/85 
f 39/39/37 84/89/86 59/90/61 58/91/60 
f 40/40/38 57/92/59 56/93/58 79/94/81 
f 41/41/39 80/80/82 65/65/67 64/64/66 
f 42/42/40 63/63/65 62/62/64 85/95/87 
f 45/45/43 86/96/88 77/77/79 76/76/78 
f 46/46/44 75/75/77 74/74/76 81/81/83 
f 47/47/45 83/97/85 68/68/70 67/67/69 
f 48/48/46 78/78/80 77/77/79 86/96/88 
f 54/54/54 60/60/62 59/59/61 84/98/86 
f 53/53/53 85/95/87 62/62/64 61/61/63 
f 2/2/2 1/1/1 87/99/89 88/100/90 
f 3/3/3 2/2/2 88/100/90 89/101/91 
f 4/4/4 3/3/3 89/101/91 90/102/92 
f 5/5/5 8/8/8 91/103/93 92/104/94 
f 6/6/6 5/5/5 92/104/94 93/105/95 
f 8/8/8 7/7/7 94/106/96 91/103/93 
f 9/9/9 12/12/9 89/107/91 88/108/90 
f 11/11/10 10/10/10 92/104/94 91/103/93 
f 13/13/11 16/16/14 95/109/97 96/110/98 
f 15/15/13 14/14/12 97/111/99 98/112/100 
f 17/17/15 20/20/18 57/57/59 58/58/60 
f 18/18/16 17/17/15 60/60/62 61/61/63 
f 19/19/17 18/18/16 63/63/65 64/64/66 
f 20/20/18 19/19/17 66/66/68 55/55/57 
f 38/38/36 21/21/19 96/113/98 95/114/97 
f 44/44/42 26/26/24 98/112/100 97/111/99 
f 27/27/25 30/30/28 69/69/71 70/70/72 
f 28/28/26 27/27/25 72/72/74 73/73/75 
f 29/29/27 28/28/26 75/75/77 76/76/78 
f 30/30/28 29/29/27 78/78/80 67/67/69 
f 31/31/29 13/13/11 96/110/98 79/79/81 
f 32/32/30 31/31/29 55/55/57 66/66/68 
f 14/14/12 32/32/30 80/80/82 97/111/99 
f 33/33/31 15/15/13 98/112/100 81/81/83 
f 34/34/32 33/33/31 73/73/75 72/72/74 
f 16/16/14 34/34/32 82/82/84 95/109/97 
f 35/35/33 38/38/36 95/114/97 82/83/84 
f 36/36/34 35/35/33 70/85/72 69/86/71 
f 37/37/35 36/36/34 83/88/85 99/115/101 
f 39/39/37 23/23/21 100/116/102 84/89/86 
f 40/40/38 39/39/37 58/91/60 57/92/59 
f 21/21/19 40/40/38 79/94/81 96/113/98 
f 41/41/39 44/44/42 97/111/99 80/80/82 
f 42/42/40 41/41/39 64/64/66 63/63/65 
f 43/43/41 42/42/40 85/95/87 101/117/103 
f 45/45/43 25/25/23 102/118/104 86/96/88 
f 46/46/44 45/45/43 76/76/78 75/75/77 
f 26/26/24 46/46/44 81/81/83 98/112/100 
f 47/47/45 50/50/48 99/119/101 83/97/85 
f 48/48/46 47/47/45 67/67/69 78/78/80 
f 49/49/47 48/48/46 86/96/88 102/118/104 
f 50/50/48 9/9/50 88/108/90 87/120/89 
f 10/10/49 49/49/47 93/105/95 92/104/94 
f 51/51/51 54/54/54 84/98/86 100/121/102 
f 53/53/53 52/52/52 101/117/103 85/95/87 
f 54/54/54 53/53/53 61/61/63 60/60/62 
f 12/12/55 51/51/51 90/122/92 89/107/91 
f 52/52/52 11/11/56 91/103/93 94/106/96 
f 4/4/4 90/102/92 103/123/105 22/22/20 
f 6/6/6 93/105/95 104/124/106 24/24/22 
f 1/1/1 105/125/107 106/126/108 87/99/89 
f 23/23/21 22/22/20 103/123/105 100/116/102 
f 7/7/7 107/127/109 108/128/110 94/106/96 
f 25/25/23 24/24/22 104/124/106 102/118/104 
f 37/37/35 99/115/101 106/126/108 105/125/107 
f 43/43/41 101/117/103 108/128/110 107/127/109 
f 49/49/47 102/118/104 104/124/106 93/105/95 
f 50/50/48 87/120/89 106/129/108 99/119/101 
f 51/51/51 100/121/102 103/130/105 90/122/92 
f 52/52/52 94/106/96 108/128/110 101/117/103 
f 38/38/36 1/1/1 4/4/4 21/21/19 
f 105/125/107 1/1/1 38/38/36 37/37/35 
f 107/127/109 7/7/7 44/44/42 43/43/41 
f 44/44/42 7/7/7 6/6/6 26/26/24 
# 106 polygons

